<?xml version="1.0" encoding="utf-8"?>
<!-- Generator: Adobe Illustrator 17.0.0, SVG Export Plug-In . SVG Version: 6.00 Build 0)  -->
<!DOCTYPE svg PUBLIC "-//W3C//DTD SVG 1.1//EN" "http://www.w3.org/Graphics/SVG/1.1/DTD/svg11.dtd">
<svg version="1.1" id="Layer_1" xmlns="http://www.w3.org/2000/svg" xmlns:xlink="http://www.w3.org/1999/xlink" x="0px" y="0px"
	 width="50px" height="70px" viewBox="-12.5 -17.5 50 70" enable-background="new -12.5 -17.5 50 70" xml:space="preserve">
<g id="Layer_1_1_">
	<g>
		<path fill="#FFFFFF" d="M6.006-14.175L-9.157,7.148v45.156l0,0c8.374,0,15.162-6.788,15.162-15.162V-14.175z"/>
		<path opacity="0.5" fill="#FFFFFF" enable-background="new    " d="M0.98,25.985v4.366c0,6.838-1.925,13.54-5.555,19.336
			l-1.433,2.285c6.862-1.449,12.013-7.538,12.013-14.832V24.449L0.98,25.985z"/>
		<path fill="#FFFFFF" d="M10.707,0.173c0.082-0.032,0.162-0.068,0.245-0.098l0.006,0.006c0.768-0.275,1.592-0.431,2.454-0.431
			c3.544,0,6.498,2.526,7.159,5.876l14.39-5.301c-1.682-5.393-5.335-9.914-10.112-12.728l-6.323-0.628L6.02-14.374
			c-0.074,0.026-0.15,0.048-0.225,0.076c-0.106,0.038-0.215,0.078-0.321,0.118c-0.219,0.082-0.437,0.168-0.652,0.257
			c-0.1,0.04-0.198,0.08-0.297,0.122c-0.271,0.116-0.537,0.237-0.802,0.363c-0.038,0.018-0.076,0.034-0.112,0.052
			c-0.299,0.144-0.595,0.297-0.886,0.453L10.707,0.173z"/>
		<path fill="#FFFFFF" d="M17.982,1.458c1.664,1.339,2.733,3.388,2.733,5.69h15.269c0-12.466-10.104-22.57-22.57-22.57
			c-1.87,0-3.687,0.229-5.425,0.656L17.982,1.458z"/>
		<path fill="#FFFFFF" d="M29.374-8.813c-5.565-5.565-13.312-7.612-20.487-6.151C18.895-5.427,20.921,1.759,20.669,6.354
			c0.231,2.123-0.463,4.328-2.091,5.956l10.798,10.798C38.187,14.293,38.187,0.003,29.374-8.813z"/>
		<path fill="#FFFFFF" d="M35.984,7.148c0-7.871-4.03-14.795-10.138-18.835c0.333,13.819-3.314,20.335-6.742,23.404
			c-1.337,1.664-3.388,2.733-5.69,2.733v15.269C25.879,29.718,35.984,19.613,35.984,7.148z"/>
		<path fill="#FFFFFF" d="M29.372,23.108c5.565-5.565,7.612-13.312,6.151-20.487C25.986,12.629,18.8,14.656,14.205,14.403
			c-2.123,0.231-4.328-0.463-5.956-2.091L-2.549,23.11C6.268,31.921,20.559,31.921,29.372,23.108z"/>
		<path fill="#FFFFFF" d="M13.413,29.72c7.871,0,14.795-4.03,18.835-10.138c-13.819,0.333-20.335-3.314-23.404-6.742
			C7.181,11.5,6.112,9.451,6.112,7.15H-9.157C-9.157,19.613,0.948,29.72,13.413,29.72z"/>
		<path fill="#FFFFFF" d="M-2.547,23.11c5.565,5.565,13.312,7.612,20.487,6.151C7.932,19.724,5.905,12.539,6.158,7.944
			C5.928,5.82,6.621,3.615,8.249,1.987L-2.547-8.811C-11.362,0.005-11.362,14.295-2.547,23.11z"/>
		<path fill="#FFFFFF" d="M2.726-12.932c-0.086,0.046-0.17,0.094-0.255,0.142c-0.208,0.114-0.415,0.233-0.619,0.355
			c-0.096,0.058-0.194,0.118-0.291,0.178c-0.198,0.122-0.395,0.249-0.591,0.379c-0.084,0.056-0.168,0.11-0.253,0.166
			c-0.273,0.186-0.543,0.377-0.808,0.575c-0.002,0.002-0.004,0.004-0.006,0.006c-0.261,0.196-0.517,0.399-0.77,0.605
			c-0.08,0.064-0.158,0.13-0.237,0.196c-0.176,0.148-0.353,0.301-0.525,0.455c-0.084,0.076-0.168,0.15-0.251,0.227
			c-0.176,0.162-0.349,0.329-0.519,0.495c-0.066,0.066-0.134,0.13-0.2,0.196c-0.231,0.233-0.459,0.471-0.68,0.714
			c-0.032,0.036-0.062,0.072-0.094,0.106c-0.19,0.211-0.375,0.425-0.555,0.642c-0.068,0.082-0.134,0.166-0.202,0.249
			c-0.144,0.178-0.287,0.359-0.427,0.541c-0.068,0.088-0.134,0.178-0.2,0.267c-0.148,0.202-0.291,0.405-0.433,0.609
			c-0.046,0.07-0.096,0.136-0.142,0.206C-5.518-5.346-5.696-5.07-5.869-4.787c-0.036,0.06-0.07,0.122-0.106,0.182
			C-6.109-4.38-6.242-4.151-6.368-3.923C-6.42-3.825-6.472-3.728-6.524-3.63c-0.108,0.202-0.213,0.409-0.315,0.615
			c-0.048,0.1-0.098,0.198-0.146,0.299C-7.1-2.477-7.208-2.235-7.314-1.99C-7.34-1.926-7.37-1.864-7.398-1.8
			C-7.527-1.491-7.649-1.18-7.765-0.866c-0.03,0.08-0.058,0.164-0.086,0.245c-0.084,0.239-0.166,0.477-0.243,0.718
			c-0.034,0.108-0.068,0.217-0.1,0.327C-8.262,0.65-8.327,0.877-8.389,1.105c-0.028,0.106-0.058,0.211-0.084,0.317
			c-0.072,0.289-0.14,0.579-0.2,0.872c-0.008,0.042-0.02,0.084-0.028,0.128C-8.77,2.757-8.83,3.096-8.882,3.435
			C-8.898,3.533-8.91,3.631-8.924,3.729C-8.96,3.976-8.992,4.225-9.018,4.473C-9.03,4.591-9.042,4.71-9.054,4.828
			C-9.076,5.073-9.096,5.319-9.11,5.566c-0.006,0.108-0.014,0.217-0.02,0.325c-0.014,0.323-0.024,0.648-0.024,0.972h-0.002v0.056
			c0,0.01,0,0.02,0,0.032c0,0.002,0,0.004,0,0.004c0,0.008,0,0.014,0,0.02v21.696H0.98v-6.213C1.26,10.899,4.58,5.191,7.722,2.38
			l0,0c0.07-0.088,0.146-0.17,0.221-0.257C8,2.057,8.061,1.991,8.123,1.925c0.076-0.08,0.154-0.16,0.235-0.239
			C8.43,1.616,8.506,1.55,8.582,1.484c0.12-0.106,0.243-0.208,0.369-0.307c0.092-0.072,0.184-0.142,0.281-0.211
			C9.31,0.911,9.39,0.859,9.472,0.806c0.1-0.064,0.204-0.126,0.309-0.186c0.072-0.042,0.144-0.084,0.217-0.124
			c0.17-0.09,0.343-0.174,0.521-0.251c0.062-0.028,0.126-0.05,0.19-0.076L2.726-12.932z"/>
		<path fill="#FFFFFF" d="M7.988-14.767C2.415-13.392-2.342-9.941-5.422-5.286C8.397-5.619,14.913-1.972,17.982,1.456L7.988-14.767z
			"/>
	</g>
</g>
<g id="Layer_1_copy">
	<g>
		
			<linearGradient id="SVGID_1_" gradientUnits="userSpaceOnUse" x1="282.9299" y1="-2960.3591" x2="282.9299" y2="-3007.2717" gradientTransform="matrix(1 0 0 1 -285.205 3000.6399)">
			<stop  offset="0" style="stop-color:#B42DA2"/>
			<stop  offset="0.4974" style="stop-color:#FFB79C"/>
			<stop  offset="1" style="stop-color:#F0E83F"/>
		</linearGradient>
		<path fill="url(#SVGID_1_)" d="M5.306-15.575L-9.856,5.748v45.156l0,0c8.374,0,15.162-6.788,15.162-15.162V-15.575L5.306-15.575z"
			/>
		
			<linearGradient id="SVGID_2_" gradientUnits="userSpaceOnUse" x1="284.5047" y1="-2970.5291" x2="284.5047" y2="-2956.8987" gradientTransform="matrix(1 0 0 1 -285.205 3000.6399)">
			<stop  offset="0" style="stop-color:#FFFFFF;stop-opacity:0.6"/>
			<stop  offset="1" style="stop-color:#FFFFFF;stop-opacity:0"/>
		</linearGradient>
		<path opacity="0.5" fill="url(#SVGID_2_)" enable-background="new    " d="M0.28,24.585v4.366c0,6.838-1.925,13.54-5.555,19.336
			l-1.431,2.287c6.862-1.449,12.013-7.538,12.013-14.832V23.052L0.28,24.585z"/>
		
			<linearGradient id="SVGID_3_" gradientUnits="userSpaceOnUse" x1="303.3488" y1="-2960.3591" x2="303.3488" y2="-3007.2717" gradientTransform="matrix(1 0 0 1 -285.205 3000.6399)">
			<stop  offset="0" style="stop-color:#B42DA2"/>
			<stop  offset="0.4974" style="stop-color:#FFB79C"/>
			<stop  offset="1" style="stop-color:#F0E83F"/>
		</linearGradient>
		<path fill="url(#SVGID_3_)" d="M10.007-1.226c0.082-0.032,0.162-0.068,0.245-0.098l0.006,0.006
			c0.768-0.275,1.592-0.431,2.454-0.431c3.544,0,6.498,2.526,7.159,5.876l14.39-5.301c-1.682-5.393-5.335-9.914-10.112-12.728
			l-6.321-0.63L5.32-15.775c-0.074,0.028-0.15,0.05-0.225,0.078c-0.106,0.038-0.215,0.078-0.321,0.118
			c-0.219,0.082-0.437,0.168-0.652,0.257c-0.1,0.04-0.198,0.08-0.297,0.122c-0.271,0.116-0.537,0.237-0.802,0.363
			c-0.038,0.018-0.076,0.034-0.112,0.052c-0.299,0.144-0.593,0.297-0.886,0.453L10.007-1.226z"/>
		
			<linearGradient id="SVGID_4_" gradientUnits="userSpaceOnUse" x1="281.0502" y1="-2997.5918" x2="302.3444" y2="-3004.5029" gradientTransform="matrix(1 0 0 1 -285.205 3000.6399)">
			<stop  offset="0" style="stop-color:#DA5AE5"/>
			<stop  offset="0.5129" style="stop-color:#D28BFF"/>
			<stop  offset="1" style="stop-color:#002963"/>
		</linearGradient>
		<path fill="url(#SVGID_4_)" d="M17.283,0.059c1.664,1.339,2.733,3.388,2.733,5.69h15.269c0-12.466-10.104-22.57-22.57-22.57
			c-1.87,0-3.687,0.229-5.425,0.656L17.283,0.059z"/>
		
			<linearGradient id="SVGID_5_" gradientUnits="userSpaceOnUse" x1="308.9794" y1="-2997.7732" x2="291.5604" y2="-3002.2454" gradientTransform="matrix(1 0 0 1 -285.205 3000.6399)">
			<stop  offset="0" style="stop-color:#B42DA2"/>
			<stop  offset="0.4974" style="stop-color:#FFB79C"/>
			<stop  offset="1" style="stop-color:#F0E83F"/>
		</linearGradient>
		<path fill="url(#SVGID_5_)" d="M28.674-10.212c-5.565-5.565-13.312-7.612-20.487-6.151C18.195-6.826,20.222,0.359,19.969,4.954
			c0.231,2.123-0.463,4.328-2.091,5.956l10.798,10.798C37.487,12.893,37.487-1.397,28.674-10.212z"/>
		
			<linearGradient id="SVGID_6_" gradientUnits="userSpaceOnUse" x1="297.6641" y1="-3006.937" x2="307.9377" y2="-2988.8184" gradientTransform="matrix(1 0 0 1 -285.205 3000.6399)">
			<stop  offset="0" style="stop-color:#DA5AE5"/>
			<stop  offset="0.5129" style="stop-color:#D28BFF"/>
			<stop  offset="1" style="stop-color:#002963"/>
		</linearGradient>
		<path fill="url(#SVGID_6_)" d="M35.284,5.748c0-7.871-4.03-14.795-10.138-18.835c0.333,13.819-3.314,20.335-6.742,23.404
			c-1.337,1.664-3.388,2.733-5.69,2.733v15.269C25.18,28.318,35.284,18.214,35.284,5.748z"/>
		
			<linearGradient id="SVGID_7_" gradientUnits="userSpaceOnUse" x1="301.0896" y1="-2983.3411" x2="313.0945" y2="-3001.7014" gradientTransform="matrix(1 0 0 1 -285.205 3000.6399)">
			<stop  offset="0" style="stop-color:#B42DA2"/>
			<stop  offset="0.4974" style="stop-color:#FFB79C"/>
			<stop  offset="1" style="stop-color:#F0E83F"/>
		</linearGradient>
		<path fill="url(#SVGID_7_)" d="M28.672,21.709c5.565-5.565,7.612-13.312,6.151-20.487c-9.537,10.008-16.722,12.035-21.317,11.782
			c-2.123,0.231-4.328-0.463-5.956-2.091L-3.246,21.709C5.569,30.522,19.859,30.522,28.672,21.709z"/>
		
			<linearGradient id="SVGID_8_" gradientUnits="userSpaceOnUse" x1="314.5713" y1="-2991.8542" x2="290.8489" y2="-2984.3828" gradientTransform="matrix(1 0 0 1 -285.205 3000.6399)">
			<stop  offset="0" style="stop-color:#DA5AE5"/>
			<stop  offset="0.5129" style="stop-color:#D28BFF"/>
			<stop  offset="1" style="stop-color:#002963"/>
		</linearGradient>
		<path fill="url(#SVGID_8_)" d="M12.714,28.32c7.871,0,14.795-4.03,18.835-10.138C17.73,18.515,11.214,14.868,8.145,11.44
			c-1.664-1.339-2.733-3.388-2.733-5.69H-9.856C-9.856,18.214,0.248,28.32,12.714,28.32z"/>
		
			<linearGradient id="SVGID_9_" gradientUnits="userSpaceOnUse" x1="286.9673" y1="-2991.124" x2="307.9172" y2="-2976.1765" gradientTransform="matrix(1 0 0 1 -285.205 3000.6399)">
			<stop  offset="0" style="stop-color:#B42DA2"/>
			<stop  offset="0.4974" style="stop-color:#FFB79C"/>
			<stop  offset="1" style="stop-color:#F0E83F"/>
		</linearGradient>
		<path fill="url(#SVGID_9_)" d="M-3.246,21.711c5.565,5.565,13.312,7.612,20.487,6.151C7.233,18.324,5.206,11.139,5.458,6.544
			C5.228,4.421,5.922,2.216,7.549,0.588L-3.246-10.21C-12.06-1.395-12.062,12.895-3.246,21.711z"/>
		
			<linearGradient id="SVGID_10_" gradientUnits="userSpaceOnUse" x1="285.2815" y1="-2960.3591" x2="285.2815" y2="-3007.2717" gradientTransform="matrix(1 0 0 1 -285.205 3000.6399)">
			<stop  offset="0" style="stop-color:#B42DA2"/>
			<stop  offset="0.4974" style="stop-color:#FFB79C"/>
			<stop  offset="1" style="stop-color:#F0E83F"/>
		</linearGradient>
		<path fill="url(#SVGID_10_)" d="M2.026-14.332c-0.086,0.046-0.17,0.094-0.255,0.142c-0.208,0.116-0.415,0.235-0.619,0.355
			c-0.096,0.06-0.194,0.118-0.291,0.178c-0.198,0.122-0.395,0.249-0.591,0.379c-0.084,0.056-0.168,0.11-0.253,0.168
			c-0.273,0.184-0.543,0.375-0.808,0.573c-0.002,0.002-0.004,0.004-0.006,0.006c-0.263,0.194-0.517,0.397-0.77,0.603
			c-0.08,0.066-0.158,0.132-0.237,0.198c-0.176,0.15-0.353,0.301-0.525,0.455c-0.084,0.076-0.168,0.15-0.251,0.227
			c-0.176,0.162-0.349,0.329-0.519,0.495c-0.066,0.066-0.134,0.13-0.2,0.196c-0.233,0.233-0.459,0.471-0.682,0.714
			c-0.03,0.036-0.06,0.072-0.092,0.108c-0.188,0.211-0.375,0.423-0.555,0.642c-0.068,0.08-0.134,0.164-0.202,0.247
			c-0.144,0.178-0.287,0.359-0.427,0.541c-0.068,0.088-0.134,0.178-0.2,0.267c-0.146,0.202-0.291,0.405-0.431,0.609
			C-5.937-7.157-5.987-7.09-6.033-7.02c-0.184,0.275-0.363,0.551-0.535,0.834c-0.036,0.06-0.07,0.122-0.106,0.182
			c-0.134,0.225-0.265,0.453-0.393,0.682C-7.12-5.224-7.172-5.128-7.224-5.03c-0.108,0.202-0.213,0.409-0.315,0.615
			c-0.05,0.1-0.098,0.198-0.146,0.299C-7.799-3.875-7.908-3.634-8.014-3.39C-8.04-3.325-8.07-3.263-8.098-3.199
			C-8.226-2.89-8.349-2.58-8.465-2.265c-0.03,0.08-0.058,0.164-0.086,0.245c-0.084,0.239-0.166,0.477-0.243,0.718
			c-0.034,0.108-0.068,0.217-0.1,0.327c-0.068,0.227-0.132,0.453-0.194,0.682c-0.028,0.106-0.056,0.211-0.084,0.317
			c-0.072,0.289-0.14,0.579-0.2,0.872c-0.008,0.042-0.02,0.084-0.028,0.126c-0.068,0.335-0.128,0.674-0.18,1.012
			C-9.598,2.132-9.61,2.23-9.624,2.328C-9.66,2.577-9.692,2.823-9.718,3.074C-9.73,3.192-9.742,3.31-9.754,3.429
			C-9.776,3.673-9.796,3.92-9.81,4.166c-0.006,0.108-0.014,0.217-0.02,0.325c-0.014,0.323-0.024,0.648-0.024,0.972h-0.002V5.52
			c0,0.01,0,0.02,0,0.032c0,0.002,0,0.004,0,0.004c0,0.008,0,0.014,0,0.02v21.696H0.28v-6.213C0.561,9.499,3.881,3.792,7.022,0.981
			l0,0c0.07-0.088,0.146-0.17,0.221-0.257c0.058-0.066,0.118-0.132,0.18-0.198c0.076-0.08,0.154-0.16,0.235-0.239
			c0.072-0.07,0.148-0.136,0.225-0.202c0.12-0.106,0.243-0.208,0.369-0.307c0.092-0.072,0.184-0.142,0.281-0.211
			C8.61-0.489,8.69-0.541,8.772-0.593c0.1-0.064,0.204-0.126,0.309-0.186c0.072-0.042,0.144-0.084,0.217-0.124
			c0.17-0.09,0.343-0.174,0.521-0.251c0.062-0.028,0.126-0.05,0.19-0.076L2.026-14.332z"/>
		
			<linearGradient id="SVGID_11_" gradientUnits="userSpaceOnUse" x1="279.3486" y1="-3002.8345" x2="300.6428" y2="-3009.7461" gradientTransform="matrix(1 0 0 1 -285.205 3000.6399)">
			<stop  offset="0" style="stop-color:#DA5AE5"/>
			<stop  offset="0.5129" style="stop-color:#D28BFF"/>
			<stop  offset="1" style="stop-color:#002963"/>
		</linearGradient>
		<path fill="url(#SVGID_11_)" d="M7.289-16.164c-5.573,1.375-10.331,4.824-13.41,9.481C7.698-7.016,14.213-3.37,17.283,0.059
			L7.289-16.164z"/>
	</g>
</g>
</svg>
