<?xml version="1.0" encoding="utf-8"?>
<!-- Generator: Adobe Illustrator 17.0.0, SVG Export Plug-In . SVG Version: 6.00 Build 0)  -->
<!DOCTYPE svg PUBLIC "-//W3C//DTD SVG 1.1//EN" "http://www.w3.org/Graphics/SVG/1.1/DTD/svg11.dtd">
<svg version="1.1" id="Layer_1" xmlns="http://www.w3.org/2000/svg" xmlns:xlink="http://www.w3.org/1999/xlink" x="0px" y="0px"
	 width="1408px" height="2104px" viewBox="1248.5 872.5 1408 2104" enable-background="new 1248.5 872.5 1408 2104"
	 xml:space="preserve">
<g id="Layer_1_1_">
	<g>
		<path fill="#FFFFFF" d="M1832.647,1228.129l-376.125,528.987v1120.213l0,0c207.728,0,376.125-168.397,376.125-376.124V1228.129z"
			/>
		<path opacity="0.5" fill="#FFFFFF" enable-background="new    " d="M1707.99,2224.438v108.319
			c0,169.658-47.764,335.889-137.826,479.67l-35.533,56.73c170.234-35.963,298.016-187.012,298.016-367.952v-314.892
			L1707.99,2224.438z"/>
		<path fill="#FFFFFF" d="M1949.301,1584.096c2.022-0.81,4.012-1.683,6.071-2.422l0.169,0.139
			c19.053-6.81,39.485-10.711,60.877-10.711c87.932,0,161.175,62.678,177.618,145.783l357.006-131.501
			c-41.709-133.796-132.323-245.94-250.848-315.784l-156.867-15.58l-310.313-30.819c-1.849,0.641-3.725,1.224-5.566,1.883
			c-2.659,0.954-5.302,1.94-7.943,2.933c-5.443,2.047-10.841,4.18-16.2,6.389c-2.462,1.013-4.934,2.007-7.377,3.055
			c-6.7,2.874-13.334,5.871-19.896,8.996c-0.905,0.431-1.832,0.823-2.736,1.259c-7.433,3.589-14.757,7.366-22.005,11.269
			L1949.301,1584.096z"/>
		<path fill="#FFFFFF" d="M2129.775,1615.956c41.291,33.198,67.781,84.055,67.781,141.161h378.793
			c0-309.233-250.682-559.915-559.914-559.915c-46.395,0-91.468,5.646-134.57,16.288L2129.775,1615.956z"/>
		<path fill="#FFFFFF" d="M2412.354,1361.197c-138.057-138.057-330.252-188.843-508.234-152.569
			c248.275,236.567,298.576,414.815,292.275,528.816c5.723,52.672-11.508,107.364-51.887,147.744l267.846,267.847
			C2631.014,1934.374,2631.014,1579.857,2412.354,1361.197z"/>
		<path fill="#FFFFFF" d="M2576.348,1757.119c0-195.241-99.991-367.054-251.492-467.259
			c8.279,342.835-82.194,504.445-167.261,580.599c-33.196,41.292-84.053,67.781-141.159,67.782l-0.001,378.793
			C2325.665,2317.033,2576.348,2066.351,2576.348,1757.119z"/>
		<path fill="#FFFFFF" d="M2412.35,2153.046c138.057-138.056,188.843-330.251,152.57-508.234
			c-236.568,248.275-414.817,298.575-528.817,292.272c-52.67,5.724-107.364-11.507-147.744-51.887l-267.847,267.846
			C1839.172,2371.704,2193.69,2371.704,2412.35,2153.046z"/>
		<path fill="#FFFFFF" d="M2016.422,2317.068c195.239,0.001,367.054-99.989,467.259-251.49
			c-342.835,8.277-504.443-82.197-580.596-167.263c-41.291-33.198-67.78-84.055-67.78-141.161l-378.791-0.001
			C1456.512,2066.385,1707.191,2317.067,2016.422,2317.068z"/>
		<path fill="#FFFFFF" d="M1620.497,2153.086c138.056,138.056,330.25,188.843,508.233,152.572
			c-248.273-236.568-298.573-414.817-292.27-528.816c-5.723-52.672,11.509-107.364,51.888-147.743l-267.843-267.849
			C1401.842,1579.909,1401.84,1934.424,1620.497,2153.086z"/>
		<path fill="#FFFFFF" d="M1751.291,1258.984c-2.118,1.142-4.198,2.345-6.299,3.511c-5.167,2.87-10.292,5.803-15.355,8.829
			c-2.425,1.448-4.834,2.917-7.235,4.402c-4.935,3.052-9.812,6.191-14.646,9.39c-2.097,1.389-4.213,2.751-6.291,4.167
			c-6.775,4.617-13.473,9.34-20.03,14.243c-0.06,0.044-0.118,0.092-0.178,0.138c-6.487,4.856-12.837,9.886-19.104,15.012
			c-1.965,1.608-3.888,3.265-5.832,4.899c-4.408,3.707-8.767,7.474-13.059,11.313c-2.076,1.857-4.144,3.726-6.193,5.614
			c-4.365,4.024-8.654,8.13-12.89,12.289c-1.652,1.622-3.333,3.213-4.963,4.856c-5.752,5.788-11.397,11.682-16.893,17.716
			c-0.792,0.87-1.542,1.774-2.327,2.649c-4.691,5.215-9.286,10.518-13.781,15.908c-1.691,2.03-3.339,4.096-5.002,6.149
			c-3.589,4.43-7.116,8.911-10.572,13.452c-1.675,2.202-3.349,4.406-4.992,6.632c-3.663,4.964-7.229,10.004-10.73,15.091
			c-1.174,1.707-2.39,3.382-3.546,5.103c-4.567,6.796-8.995,13.692-13.269,20.695c-0.909,1.487-1.753,3.014-2.647,4.511
			c-3.34,5.589-6.596,11.232-9.744,16.944c-1.318,2.395-2.597,4.816-3.881,7.231c-2.685,5.051-5.296,10.148-7.83,15.289
			c-1.216,2.464-2.438,4.924-3.618,7.409c-2.82,5.94-5.521,11.944-8.136,17.996c-0.685,1.588-1.422,3.15-2.093,4.745
			c-3.211,7.627-6.246,15.345-9.124,23.138c-0.746,2.021-1.42,4.073-2.142,6.104c-2.093,5.878-4.11,11.795-6.011,17.762
			c-0.859,2.699-1.68,5.414-2.501,8.129c-1.691,5.606-3.288,11.25-4.807,16.928c-0.7,2.61-1.417,5.21-2.078,7.836
			c-1.801,7.151-3.465,14.355-4.988,21.61c-0.222,1.059-0.49,2.101-0.706,3.163c-1.692,8.308-3.168,16.692-4.487,25.13
			c-0.38,2.429-0.684,4.883-1.033,7.322c-0.876,6.123-1.67,12.272-2.346,18.456c-0.32,2.934-0.61,5.876-0.886,8.824
			c-0.566,6.069-1.02,12.17-1.391,18.294c-0.162,2.685-0.361,5.361-0.484,8.055c-0.371,8.003-0.572,16.049-0.611,24.135h-0.035
			v1.383c-0.001,0.262-0.02,0.52-0.02,0.783c0,0.042,0.003,0.082,0.003,0.122c0,0.175,0.017,0.347,0.017,0.522v538.245h251.468
			v-154.117c6.94-286.779,89.344-428.349,167.266-498.105l0.001-0.001c1.752-2.179,3.615-4.25,5.465-6.343
			c1.461-1.657,2.934-3.3,4.454-4.903c1.905-2.005,3.827-3.98,5.821-5.896c1.801-1.734,3.677-3.384,5.549-5.043
			c2.97-2.629,6.011-5.161,9.15-7.593c2.29-1.778,4.59-3.541,6.966-5.209c1.952-1.368,3.941-2.67,5.947-3.962
			c2.503-1.614,5.057-3.152,7.643-4.643c1.795-1.034,3.558-2.106,5.392-3.079c4.211-2.241,8.521-4.314,12.92-6.222
			c1.557-0.675,3.156-1.259,4.735-1.891L1751.291,1258.984z"/>
		<path fill="#FFFFFF" d="M1881.864,1213.49c-138.283,34.142-256.295,119.705-332.687,235.205
			c342.835-8.279,504.444,82.194,580.599,167.26L1881.864,1213.49z"/>
	</g>
</g>
<g id="Layer_1_copy">
	<g>
		
			<linearGradient id="SVGID_1_" gradientUnits="userSpaceOnUse" x1="1627.2434" y1="1420.6165" x2="1627.2434" y2="2584.4221" gradientTransform="matrix(1 0 0 -1 -0.015 3999.7)">
			<stop  offset="0" style="stop-color:#B42DA2"/>
			<stop  offset="0.4974" style="stop-color:#FFB79C"/>
			<stop  offset="1" style="stop-color:#F0E83F"/>
		</linearGradient>
		<path fill="url(#SVGID_1_)" d="M1815.291,1193.418l-376.125,528.987v1120.213l0,0c207.728,0,376.125-168.396,376.125-376.124
			V1193.418z"/>
		
			<linearGradient id="SVGID_2_" gradientUnits="userSpaceOnUse" x1="1666.298" y1="1672.9102" x2="1666.298" y2="1334.7709" gradientTransform="matrix(1 0 0 -1 -0.015 3999.7)">
			<stop  offset="0" style="stop-color:#FFFFFF;stop-opacity:0.6"/>
			<stop  offset="1" style="stop-color:#FFFFFF;stop-opacity:0"/>
		</linearGradient>
		<path opacity="0.5" fill="url(#SVGID_2_)" enable-background="new    " d="M1690.634,2189.726v108.319
			c0,169.658-47.764,335.889-137.826,479.67l-35.533,56.73c170.234-35.963,298.016-187.012,298.016-367.952V2151.6
			L1690.634,2189.726z"/>
		
			<linearGradient id="SVGID_3_" gradientUnits="userSpaceOnUse" x1="2133.8257" y1="1420.6165" x2="2133.8257" y2="2584.4214" gradientTransform="matrix(1 0 0 -1 -0.015 3999.7)">
			<stop  offset="0" style="stop-color:#B42DA2"/>
			<stop  offset="0.4974" style="stop-color:#FFB79C"/>
			<stop  offset="1" style="stop-color:#F0E83F"/>
		</linearGradient>
		<path fill="url(#SVGID_3_)" d="M1931.945,1549.384c2.022-0.81,4.012-1.683,6.07-2.422l0.169,0.139
			c19.053-6.81,39.485-10.711,60.877-10.711c87.932,0,161.175,62.678,177.618,145.783l357.006-131.501
			c-41.709-133.795-132.323-245.94-250.848-315.784l-156.867-15.58l-310.313-30.818c-1.849,0.641-3.725,1.224-5.566,1.883
			c-2.659,0.954-5.302,1.94-7.943,2.933c-5.443,2.046-10.841,4.18-16.2,6.389c-2.462,1.014-4.934,2.008-7.377,3.055
			c-6.7,2.874-13.334,5.871-19.896,8.996c-0.905,0.431-1.832,0.823-2.735,1.259c-7.433,3.589-14.757,7.366-22.005,11.269
			L1931.945,1549.384z"/>
		
			<linearGradient id="SVGID_4_" gradientUnits="userSpaceOnUse" x1="1580.6283" y1="2344.2659" x2="2108.8901" y2="2515.719" gradientTransform="matrix(1 0 0 -1 -0.015 3999.7)">
			<stop  offset="0" style="stop-color:#DA5AE5"/>
			<stop  offset="0.5129" style="stop-color:#D28BFF"/>
			<stop  offset="1" style="stop-color:#002963"/>
		</linearGradient>
		<path fill="url(#SVGID_4_)" d="M2112.419,1581.244c41.291,33.198,67.781,84.055,67.781,141.161h378.793
			c0-309.233-250.682-559.915-559.915-559.915c-46.395,0-91.468,5.646-134.57,16.288L2112.419,1581.244z"/>
		
			<linearGradient id="SVGID_5_" gradientUnits="userSpaceOnUse" x1="2273.4854" y1="2348.7678" x2="1841.3568" y2="2459.7195" gradientTransform="matrix(1 0 0 -1 -0.015 3999.7)">
			<stop  offset="0" style="stop-color:#B42DA2"/>
			<stop  offset="0.4974" style="stop-color:#FFB79C"/>
			<stop  offset="1" style="stop-color:#F0E83F"/>
		</linearGradient>
		<path fill="url(#SVGID_5_)" d="M2394.998,1326.485c-138.056-138.057-330.251-188.843-508.234-152.569
			c248.275,236.567,298.577,414.815,292.275,528.816c5.723,52.672-11.508,107.364-51.887,147.744l267.846,267.847
			C2613.658,1899.662,2613.658,1545.145,2394.998,1326.485z"/>
		
			<linearGradient id="SVGID_6_" gradientUnits="userSpaceOnUse" x1="1992.7744" y1="2576.115" x2="2247.6379" y2="2126.6284" gradientTransform="matrix(1 0 0 -1 -0.015 3999.7)">
			<stop  offset="0" style="stop-color:#DA5AE5"/>
			<stop  offset="0.5129" style="stop-color:#D28BFF"/>
			<stop  offset="1" style="stop-color:#002963"/>
		</linearGradient>
		<path fill="url(#SVGID_6_)" d="M2558.992,1722.408c0-195.241-99.991-367.054-251.492-467.259
			c8.279,342.835-82.194,504.445-167.261,580.599c-33.196,41.292-84.053,67.781-141.159,67.782l-0.001,378.793
			C2308.309,2282.321,2558.992,2031.639,2558.992,1722.408z"/>
		
			<linearGradient id="SVGID_7_" gradientUnits="userSpaceOnUse" x1="2077.7615" y1="1990.7426" x2="2375.5801" y2="2446.23" gradientTransform="matrix(1 0 0 -1 -0.015 3999.7)">
			<stop  offset="0" style="stop-color:#B42DA2"/>
			<stop  offset="0.4974" style="stop-color:#FFB79C"/>
			<stop  offset="1" style="stop-color:#F0E83F"/>
		</linearGradient>
		<path fill="url(#SVGID_7_)" d="M2394.994,2118.334c138.057-138.056,188.843-330.251,152.57-508.234
			c-236.568,248.275-414.817,298.575-528.817,292.272c-52.67,5.724-107.364-11.507-147.744-51.887l-267.847,267.846
			C1821.816,2336.993,2176.334,2336.993,2394.994,2118.334z"/>
		
			<linearGradient id="SVGID_8_" gradientUnits="userSpaceOnUse" x1="2412.2041" y1="2201.967" x2="1823.7012" y2="2016.6115" gradientTransform="matrix(1 0 0 -1 -0.015 3999.7)">
			<stop  offset="0" style="stop-color:#DA5AE5"/>
			<stop  offset="0.5129" style="stop-color:#D28BFF"/>
			<stop  offset="1" style="stop-color:#002963"/>
		</linearGradient>
		<path fill="url(#SVGID_8_)" d="M1999.066,2282.356c195.24,0.001,367.054-99.989,467.259-251.49
			c-342.835,8.276-504.443-82.197-580.596-167.263c-41.291-33.198-67.78-84.055-67.781-141.161l-378.791-0.001
			C1439.156,2031.673,1689.835,2282.355,1999.066,2282.356z"/>
		
			<linearGradient id="SVGID_9_" gradientUnits="userSpaceOnUse" x1="1727.4165" y1="2183.8289" x2="2247.1399" y2="1813.0154" gradientTransform="matrix(1 0 0 -1 -0.015 3999.7)">
			<stop  offset="0" style="stop-color:#B42DA2"/>
			<stop  offset="0.4974" style="stop-color:#FFB79C"/>
			<stop  offset="1" style="stop-color:#F0E83F"/>
		</linearGradient>
		<path fill="url(#SVGID_9_)" d="M1603.141,2118.374c138.056,138.056,330.25,188.843,508.233,152.572
			c-248.273-236.568-298.573-414.817-292.27-528.816c-5.723-52.672,11.509-107.364,51.888-147.743l-267.843-267.849
			C1384.487,1545.197,1384.484,1899.713,1603.141,2118.374z"/>
		
			<linearGradient id="SVGID_10_" gradientUnits="userSpaceOnUse" x1="1685.561" y1="1420.616" x2="1685.561" y2="2584.4233" gradientTransform="matrix(1 0 0 -1 -0.015 3999.7)">
			<stop  offset="0" style="stop-color:#B42DA2"/>
			<stop  offset="0.4974" style="stop-color:#FFB79C"/>
			<stop  offset="1" style="stop-color:#F0E83F"/>
		</linearGradient>
		<path fill="url(#SVGID_10_)" d="M1733.935,1224.273c-2.118,1.142-4.198,2.345-6.299,3.512c-5.167,2.87-10.292,5.803-15.355,8.829
			c-2.425,1.448-4.834,2.917-7.235,4.402c-4.935,3.052-9.812,6.191-14.646,9.39c-2.097,1.388-4.214,2.751-6.291,4.167
			c-6.775,4.617-13.472,9.341-20.03,14.243c-0.06,0.044-0.118,0.092-0.178,0.138c-6.487,4.856-12.837,9.886-19.103,15.012
			c-1.965,1.608-3.888,3.265-5.832,4.899c-4.408,3.707-8.767,7.474-13.059,11.313c-2.076,1.857-4.144,3.725-6.192,5.614
			c-4.365,4.024-8.655,8.13-12.89,12.289c-1.652,1.622-3.333,3.213-4.964,4.856c-5.752,5.788-11.397,11.682-16.893,17.716
			c-0.792,0.87-1.542,1.774-2.327,2.649c-4.691,5.215-9.286,10.518-13.781,15.908c-1.691,2.03-3.339,4.096-5.002,6.148
			c-3.589,4.43-7.116,8.911-10.572,13.452c-1.675,2.202-3.349,4.406-4.992,6.632c-3.663,4.964-7.229,10.004-10.73,15.091
			c-1.174,1.707-2.39,3.382-3.546,5.103c-4.567,6.796-8.995,13.692-13.269,20.695c-0.909,1.487-1.753,3.014-2.647,4.511
			c-3.34,5.589-6.596,11.232-9.744,16.944c-1.318,2.395-2.597,4.816-3.881,7.231c-2.685,5.051-5.296,10.148-7.83,15.289
			c-1.216,2.464-2.438,4.924-3.618,7.409c-2.82,5.94-5.521,11.944-8.136,17.996c-0.685,1.588-1.422,3.149-2.093,4.745
			c-3.211,7.627-6.246,15.345-9.124,23.138c-0.746,2.021-1.42,4.073-2.142,6.104c-2.093,5.878-4.11,11.795-6.011,17.762
			c-0.859,2.699-1.68,5.414-2.5,8.129c-1.691,5.606-3.288,11.25-4.807,16.928c-0.699,2.61-1.417,5.21-2.078,7.836
			c-1.801,7.15-3.465,14.355-4.988,21.61c-0.222,1.059-0.489,2.101-0.706,3.163c-1.692,8.308-3.168,16.692-4.487,25.13
			c-0.38,2.429-0.684,4.883-1.033,7.322c-0.876,6.123-1.67,12.272-2.346,18.456c-0.32,2.934-0.61,5.876-0.886,8.824
			c-0.566,6.069-1.02,12.17-1.391,18.294c-0.162,2.685-0.361,5.361-0.484,8.055c-0.371,8.003-0.572,16.049-0.611,24.134h-0.035
			v1.384c-0.001,0.262-0.02,0.52-0.02,0.783c0,0.042,0.003,0.082,0.003,0.122c0,0.175,0.017,0.347,0.017,0.522v538.245h251.468
			v-154.117c6.94-286.78,89.344-428.349,167.266-498.105l0.001-0.001c1.752-2.179,3.615-4.25,5.465-6.343
			c1.461-1.657,2.934-3.3,4.454-4.903c1.905-2.005,3.827-3.98,5.821-5.896c1.801-1.734,3.677-3.384,5.549-5.043
			c2.97-2.629,6.011-5.161,9.15-7.593c2.29-1.778,4.59-3.542,6.966-5.209c1.952-1.368,3.941-2.669,5.947-3.962
			c2.503-1.614,5.057-3.152,7.643-4.643c1.795-1.034,3.558-2.106,5.392-3.079c4.211-2.241,8.521-4.314,12.92-6.222
			c1.557-0.675,3.156-1.259,4.735-1.891L1733.935,1224.273z"/>
		
			<linearGradient id="SVGID_11_" gradientUnits="userSpaceOnUse" x1="1538.4039" y1="2474.3638" x2="2066.6687" y2="2645.8179" gradientTransform="matrix(1 0 0 -1 -0.015 3999.7)">
			<stop  offset="0" style="stop-color:#DA5AE5"/>
			<stop  offset="0.5129" style="stop-color:#D28BFF"/>
			<stop  offset="1" style="stop-color:#002963"/>
		</linearGradient>
		<path fill="url(#SVGID_11_)" d="M1864.508,1178.778c-138.283,34.142-256.296,119.705-332.688,235.205
			c342.836-8.279,504.444,82.194,580.599,167.26L1864.508,1178.778z"/>
	</g>
</g>
</svg>
