<?xml version="1.0" encoding="utf-8"?>
<!-- Generator: Adobe Illustrator 17.0.0, SVG Export Plug-In . SVG Version: 6.00 Build 0)  -->
<!DOCTYPE svg PUBLIC "-//W3C//DTD SVG 1.1//EN" "http://www.w3.org/Graphics/SVG/1.1/DTD/svg11.dtd">
<svg version="1.1" id="Layer_1" xmlns="http://www.w3.org/2000/svg" xmlns:xlink="http://www.w3.org/1999/xlink" x="0px" y="0px"
	 width="1425.286px" height="1586.96px" viewBox="0 0 1425.286 1586.96" enable-background="new 0 0 1425.286 1586.96"
	 xml:space="preserve">
<g>
	<g>
		<g>
			<linearGradient id="SVGID_1_" gradientUnits="userSpaceOnUse" x1="1051.2903" y1="1466.4332" x2="768.7186" y2="684.9467">
				<stop  offset="0" style="stop-color:#00C5DC"/>
				<stop  offset="1" style="stop-color:#005484"/>
			</linearGradient>
			<polygon fill="url(#SVGID_1_)" points="1221.156,1525.02 1033.53,1525.02 583.648,584.309 771.275,584.309 			"/>
			
				<line fill="none" stroke="#FFFFFF" stroke-width="18" stroke-miterlimit="10" x1="1125.774" y1="1525.02" x2="675.893" y2="584.309"/>
		</g>
		<g>
			<polygon opacity="0.15" points="704.357,836.711 775.039,592.179 771.275,584.309 589.688,584.309 587.413,592.179 			"/>
		</g>
		<polygon opacity="0.15" points="1033.53,1525.02 1221.156,1525.02 984.018,1029.161 1016.142,1488.662 		"/>
	</g>
	<g>
		<g>
			<polygon fill="#10B2BF" points="1392.397,991.693 260.717,991.693 184.852,1133.163 1316.532,1133.163 			"/>
			<g>
				<defs>
					<polygon id="SVGID_2_" points="1392.397,991.693 260.717,991.693 184.852,1133.163 1316.532,1133.163 					"/>
				</defs>
				<clipPath id="SVGID_3_">
					<use xlink:href="#SVGID_2_"  overflow="visible"/>
				</clipPath>
				
					<line clip-path="url(#SVGID_3_)" fill="none" stroke="#FFFFFF" stroke-width="18" stroke-miterlimit="10" x1="1494.693" y1="1062.428" x2="158.421" y2="1062.428"/>
			</g>
		</g>
		<polygon opacity="0.15" points="306.039,1133.163 561.69,1133.163 615.702,991.693 374.474,991.693 		"/>
		<polygon opacity="0.15" points="1014.808,1133.163 1233.225,1133.163 1250.518,991.693 993.332,991.693 		"/>
	</g>
	<g>
		<g>
			<linearGradient id="SVGID_4_" gradientUnits="userSpaceOnUse" x1="656.9473" y1="558.4656" x2="347.8845" y2="1348.7815">
				<stop  offset="0" style="stop-color:#00C5DC"/>
				<stop  offset="1" style="stop-color:#005484"/>
			</linearGradient>
			<polygon fill="url(#SVGID_4_)" points="227.785,1337.787 415.412,1337.787 771.24,584.309 583.614,584.309 			"/>
			<g>
				<defs>
					<polygon id="SVGID_5_" points="227.785,1337.787 415.412,1337.787 771.24,584.309 583.614,584.309 					"/>
				</defs>
				<clipPath id="SVGID_6_">
					<use xlink:href="#SVGID_5_"  overflow="visible"/>
				</clipPath>
				
					<line clip-path="url(#SVGID_6_)" fill="none" stroke="#FFFFFF" stroke-width="18" stroke-miterlimit="10" x1="303.438" y1="1370.287" x2="689.964" y2="551.808"/>
			</g>
		</g>
		<g>
			<g>
				<linearGradient id="SVGID_7_" gradientUnits="userSpaceOnUse" x1="1127.3429" y1="888.7708" x2="1127.3429" y2="1502.6234">
					<stop  offset="0" style="stop-color:#00C5DC"/>
					<stop  offset="1" style="stop-color:#005484"/>
				</linearGradient>
				<rect x="1033.53" y="833.56" fill="url(#SVGID_7_)" width="187.626" height="691.46"/>
				
					<line fill="none" stroke="#FFFFFF" stroke-width="18" stroke-miterlimit="10" x1="1127.343" y1="833.56" x2="1127.343" y2="1525.02"/>
			</g>
			<g>
				<g>
					<linearGradient id="SVGID_8_" gradientUnits="userSpaceOnUse" x1="1127.3425" y1="487.0096" x2="1127.3425" y2="775.7802">
						<stop  offset="0" style="stop-color:#00C5DC"/>
						<stop  offset="1" style="stop-color:#005484"/>
					</linearGradient>
					<circle fill="url(#SVGID_8_)" cx="1127.343" cy="622.826" r="150.862"/>
					<circle opacity="0.15" cx="1127.343" cy="622.826" r="106.646"/>
				</g>
				<circle fill="#D4D300" stroke="#D4D300" stroke-width="1.3627" stroke-miterlimit="10" cx="1127.343" cy="622.826" r="92.471"/>
			</g>
		</g>
	</g>
</g>
</svg>
