<?xml version="1.0" encoding="utf-8"?>
<!-- Generator: Adobe Illustrator 17.0.0, SVG Export Plug-In . SVG Version: 6.00 Build 0)  -->
<!DOCTYPE svg PUBLIC "-//W3C//DTD SVG 1.1//EN" "http://www.w3.org/Graphics/SVG/1.1/DTD/svg11.dtd">
<svg version="1.1" id="Layer_1" xmlns="http://www.w3.org/2000/svg" xmlns:xlink="http://www.w3.org/1999/xlink" x="0px" y="0px"
	 width="25px" height="35px" viewBox="0 0 25 35" enable-background="new 0 0 25 35" xml:space="preserve">
<g id="Layer_1_1_">
	<g>
		<path fill="#FFFFFF" d="M9.543,1.821L1.98,12.457v22.524l0,0c4.177,0,7.563-3.386,7.563-7.563V1.821z"/>
		<path opacity="0.5" fill="#FFFFFF" enable-background="new    " d="M7.036,21.853v2.178c0,3.411-0.96,6.754-2.771,9.645
			L3.55,34.816c3.423-0.723,5.992-3.76,5.992-7.398v-6.331L7.036,21.853z"/>
		<path fill="#FFFFFF" d="M11.888,8.978c0.041-0.016,0.081-0.034,0.122-0.049l0.003,0.003c0.383-0.137,0.794-0.215,1.224-0.215
			c1.768,0,3.241,1.26,3.571,2.931l7.178-2.644c-0.839-2.69-2.661-4.945-5.044-6.349l-3.154-0.313L9.55,1.722
			C9.513,1.735,9.475,1.746,9.438,1.76c-0.053,0.019-0.107,0.039-0.16,0.059C9.169,1.86,9.06,1.903,8.953,1.947
			c-0.05,0.02-0.099,0.04-0.148,0.061c-0.135,0.058-0.268,0.118-0.4,0.181C8.386,2.198,8.367,2.206,8.349,2.215
			C8.2,2.287,8.052,2.363,7.907,2.441L11.888,8.978z"/>
		<path fill="#FFFFFF" d="M15.517,9.619c0.83,0.668,1.363,1.69,1.363,2.838h7.616c0-6.218-5.04-11.258-11.258-11.258
			c-0.933,0-1.839,0.114-2.706,0.327L15.517,9.619z"/>
		<path fill="#FFFFFF" d="M21.199,4.496c-2.776-2.776-6.64-3.797-10.219-3.068c4.992,4.757,6.003,8.341,5.877,10.633
			c0.115,1.059-0.231,2.159-1.043,2.971l5.386,5.386C25.595,16.021,25.595,8.893,21.199,4.496z"/>
		<path fill="#FFFFFF" d="M24.496,12.457c0-3.926-2.01-7.38-5.057-9.395c0.166,6.893-1.653,10.143-3.363,11.674
			c-0.667,0.83-1.69,1.363-2.838,1.363v7.616C19.456,23.715,24.496,18.675,24.496,12.457z"/>
		<path fill="#FFFFFF" d="M21.198,20.418c2.776-2.776,3.797-6.64,3.068-10.219c-4.757,4.992-8.341,6.003-10.633,5.877
			c-1.059,0.115-2.159-0.231-2.971-1.043l-5.386,5.386C9.674,24.814,16.802,24.814,21.198,20.418z"/>
		<path fill="#FFFFFF" d="M13.238,23.716c3.926,0,7.38-2.01,9.395-5.057c-6.893,0.166-10.143-1.653-11.674-3.363
			c-0.83-0.668-1.363-1.69-1.363-2.838H1.98C1.98,18.675,7.02,23.716,13.238,23.716z"/>
		<path fill="#FFFFFF" d="M5.277,20.419c2.776,2.776,6.64,3.797,10.219,3.068c-4.992-4.757-6.003-8.341-5.877-10.633
			c-0.115-1.059,0.231-2.159,1.043-2.971L5.277,4.497C0.88,8.894,0.88,16.022,5.277,20.419z"/>
		<path fill="#FFFFFF" d="M7.907,2.441C7.864,2.464,7.822,2.488,7.78,2.512C7.676,2.569,7.573,2.628,7.471,2.689
			C7.423,2.718,7.374,2.748,7.326,2.778C7.227,2.839,7.129,2.902,7.031,2.967C6.989,2.995,6.947,3.022,6.905,3.05
			C6.769,3.143,6.634,3.238,6.502,3.337C6.501,3.338,6.5,3.339,6.499,3.34c-0.13,0.098-0.258,0.199-0.384,0.302
			C6.075,3.674,6.036,3.707,5.997,3.74C5.909,3.814,5.821,3.89,5.735,3.967C5.693,4.005,5.651,4.042,5.61,4.08
			C5.522,4.161,5.436,4.244,5.351,4.327c-0.033,0.033-0.067,0.065-0.1,0.098C5.136,4.541,5.022,4.66,4.912,4.781
			C4.896,4.799,4.881,4.817,4.865,4.834C4.77,4.939,4.678,5.046,4.588,5.154C4.554,5.195,4.521,5.237,4.487,5.278
			c-0.072,0.089-0.143,0.179-0.213,0.27c-0.034,0.044-0.067,0.089-0.1,0.133C4.1,5.782,4.029,5.883,3.958,5.985
			C3.935,6.02,3.91,6.053,3.887,6.088C3.795,6.225,3.706,6.363,3.62,6.504c-0.018,0.03-0.035,0.061-0.053,0.091
			C3.5,6.707,3.434,6.821,3.371,6.935C3.345,6.984,3.319,7.032,3.293,7.081C3.239,7.182,3.187,7.285,3.136,7.388
			c-0.024,0.05-0.049,0.099-0.073,0.149c-0.057,0.119-0.111,0.24-0.164,0.362C2.886,7.931,2.871,7.962,2.857,7.994
			C2.793,8.148,2.732,8.303,2.674,8.46C2.659,8.5,2.645,8.542,2.631,8.582C2.589,8.701,2.548,8.82,2.51,8.94
			C2.493,8.994,2.476,9.048,2.46,9.103c-0.034,0.113-0.066,0.226-0.097,0.34C2.349,9.496,2.334,9.548,2.321,9.601
			c-0.036,0.144-0.07,0.289-0.1,0.435c-0.004,0.021-0.01,0.042-0.014,0.064c-0.034,0.167-0.064,0.336-0.09,0.505
			c-0.008,0.049-0.014,0.098-0.021,0.147c-0.018,0.123-0.034,0.247-0.047,0.371c-0.006,0.059-0.012,0.118-0.018,0.177
			c-0.011,0.122-0.021,0.245-0.028,0.368C2,11.722,1.996,11.776,1.993,11.83c-0.007,0.161-0.012,0.323-0.012,0.485H1.98v0.028
			c0,0.005,0,0.01,0,0.016c0,0.001,0,0.002,0,0.002c0,0.004,0,0.007,0,0.01v10.822h5.056v-3.099
			c0.14-5.766,1.796-8.613,3.363-10.015l0,0c0.035-0.044,0.073-0.085,0.11-0.128c0.029-0.033,0.059-0.066,0.09-0.099
			c0.038-0.04,0.077-0.08,0.117-0.119c0.036-0.035,0.074-0.068,0.112-0.101c0.06-0.053,0.121-0.104,0.184-0.153
			c0.046-0.036,0.092-0.071,0.14-0.105c0.039-0.028,0.079-0.054,0.12-0.08c0.05-0.032,0.102-0.063,0.154-0.093
			c0.036-0.021,0.072-0.042,0.108-0.062c0.085-0.045,0.171-0.087,0.26-0.125c0.031-0.014,0.063-0.025,0.095-0.038L7.907,2.441z"/>
		<path fill="#FFFFFF" d="M10.532,1.526c-2.78,0.686-5.153,2.407-6.689,4.729c6.893-0.166,10.143,1.653,11.674,3.363L10.532,1.526z"
			/>
	</g>
</g>
<g id="Layer_1_copy">
	<g>
		
			<linearGradient id="SVGID_1_" gradientUnits="userSpaceOnUse" x1="5.4572" y1="3410.116" x2="5.4572" y2="3433.5161" gradientTransform="matrix(1 0 0 -1 -0.045 3439.0999)">
			<stop  offset="0" style="stop-color:#B42DA2"/>
			<stop  offset="0.4974" style="stop-color:#FFB79C"/>
			<stop  offset="1" style="stop-color:#F0E83F"/>
		</linearGradient>
		<path fill="url(#SVGID_1_)" d="M9.194,1.123L1.631,11.759v22.524l0,0c4.177,0,7.563-3.386,7.563-7.563L9.194,1.123L9.194,1.123z"
			/>
		
			<linearGradient id="SVGID_2_" gradientUnits="userSpaceOnUse" x1="6.2425" y1="3415.1887" x2="6.2425" y2="3408.3899" gradientTransform="matrix(1 0 0 -1 -0.045 3439.0999)">
			<stop  offset="0" style="stop-color:#FFFFFF;stop-opacity:0.6"/>
			<stop  offset="1" style="stop-color:#FFFFFF;stop-opacity:0"/>
		</linearGradient>
		<path opacity="0.5" fill="url(#SVGID_2_)" enable-background="new    " d="M6.687,21.155v2.178c0,3.411-0.96,6.754-2.771,9.645
			l-0.714,1.141c3.423-0.723,5.992-3.76,5.992-7.398v-6.331L6.687,21.155z"/>
		
			<linearGradient id="SVGID_3_" gradientUnits="userSpaceOnUse" x1="15.643" y1="3410.116" x2="15.643" y2="3433.5161" gradientTransform="matrix(1 0 0 -1 -0.045 3439.0999)">
			<stop  offset="0" style="stop-color:#B42DA2"/>
			<stop  offset="0.4974" style="stop-color:#FFB79C"/>
			<stop  offset="1" style="stop-color:#F0E83F"/>
		</linearGradient>
		<path fill="url(#SVGID_3_)" d="M11.539,8.28c0.041-0.016,0.081-0.034,0.122-0.049l0.003,0.003
			c0.383-0.137,0.794-0.215,1.224-0.215c1.768,0,3.241,1.26,3.571,2.931l7.178-2.644c-0.839-2.69-2.661-4.945-5.044-6.349
			L15.44,1.643l-6.239-0.62C9.164,1.037,9.126,1.048,9.089,1.062c-0.053,0.019-0.107,0.039-0.16,0.059
			C8.82,1.162,8.711,1.205,8.604,1.249c-0.05,0.02-0.099,0.04-0.148,0.061c-0.135,0.058-0.268,0.118-0.4,0.181
			C8.037,1.5,8.018,1.508,8,1.517C7.851,1.589,7.704,1.665,7.558,1.743L11.539,8.28z"/>
		
			<linearGradient id="SVGID_4_" gradientUnits="userSpaceOnUse" x1="4.52" y1="3428.6875" x2="15.1416" y2="3432.1348" gradientTransform="matrix(1 0 0 -1 -0.045 3439.0999)">
			<stop  offset="0" style="stop-color:#DA5AE5"/>
			<stop  offset="0.5129" style="stop-color:#D28BFF"/>
			<stop  offset="1" style="stop-color:#002963"/>
		</linearGradient>
		<path fill="url(#SVGID_4_)" d="M15.168,8.921c0.83,0.668,1.363,1.69,1.363,2.838h7.616c0-6.218-5.04-11.258-11.258-11.258
			c-0.933,0-1.839,0.114-2.706,0.327L15.168,8.921z"/>
		
			<linearGradient id="SVGID_5_" gradientUnits="userSpaceOnUse" x1="18.451" y1="3428.7781" x2="9.7624" y2="3431.0088" gradientTransform="matrix(1 0 0 -1 -0.045 3439.0999)">
			<stop  offset="0" style="stop-color:#B42DA2"/>
			<stop  offset="0.4974" style="stop-color:#FFB79C"/>
			<stop  offset="1" style="stop-color:#F0E83F"/>
		</linearGradient>
		<path fill="url(#SVGID_5_)" d="M20.85,3.798c-2.776-2.776-6.64-3.797-10.219-3.068c4.992,4.757,6.003,8.341,5.877,10.633
			c0.115,1.059-0.231,2.159-1.043,2.971l5.386,5.386C25.246,15.323,25.246,8.195,20.85,3.798z"/>
		
			<linearGradient id="SVGID_6_" gradientUnits="userSpaceOnUse" x1="12.8069" y1="3433.3491" x2="17.9314" y2="3424.3115" gradientTransform="matrix(1 0 0 -1 -0.045 3439.0999)">
			<stop  offset="0" style="stop-color:#DA5AE5"/>
			<stop  offset="0.5129" style="stop-color:#D28BFF"/>
			<stop  offset="1" style="stop-color:#002963"/>
		</linearGradient>
		<path fill="url(#SVGID_6_)" d="M24.147,11.759c0-3.926-2.01-7.38-5.057-9.395c0.166,6.893-1.653,10.143-3.363,11.674
			c-0.667,0.83-1.69,1.363-2.838,1.363v7.616C19.107,23.017,24.147,17.977,24.147,11.759z"/>
		
			<linearGradient id="SVGID_7_" gradientUnits="userSpaceOnUse" x1="14.5157" y1="3421.5793" x2="20.5038" y2="3430.7375" gradientTransform="matrix(1 0 0 -1 -0.045 3439.0999)">
			<stop  offset="0" style="stop-color:#B42DA2"/>
			<stop  offset="0.4974" style="stop-color:#FFB79C"/>
			<stop  offset="1" style="stop-color:#F0E83F"/>
		</linearGradient>
		<path fill="url(#SVGID_7_)" d="M20.849,19.72c2.776-2.776,3.797-6.64,3.068-10.219c-4.757,4.992-8.341,6.003-10.633,5.877
			c-1.059,0.115-2.159-0.231-2.971-1.043L4.928,19.72C9.325,24.116,16.453,24.116,20.849,19.72z"/>
		
			<linearGradient id="SVGID_8_" gradientUnits="userSpaceOnUse" x1="21.2402" y1="3425.8262" x2="9.4074" y2="3422.0994" gradientTransform="matrix(1 0 0 -1 -0.045 3439.0999)">
			<stop  offset="0" style="stop-color:#DA5AE5"/>
			<stop  offset="0.5129" style="stop-color:#D28BFF"/>
			<stop  offset="1" style="stop-color:#002963"/>
		</linearGradient>
		<path fill="url(#SVGID_8_)" d="M12.889,23.018c3.926,0,7.38-2.01,9.395-5.057c-6.893,0.166-10.143-1.653-11.674-3.363
			c-0.83-0.668-1.363-1.69-1.363-2.838H1.631C1.631,17.977,6.671,23.018,12.889,23.018z"/>
		
			<linearGradient id="SVGID_9_" gradientUnits="userSpaceOnUse" x1="7.4714" y1="3425.4617" x2="17.9213" y2="3418.0059" gradientTransform="matrix(1 0 0 -1 -0.045 3439.0999)">
			<stop  offset="0" style="stop-color:#B42DA2"/>
			<stop  offset="0.4974" style="stop-color:#FFB79C"/>
			<stop  offset="1" style="stop-color:#F0E83F"/>
		</linearGradient>
		<path fill="url(#SVGID_9_)" d="M4.928,19.721c2.776,2.776,6.64,3.797,10.219,3.068c-4.992-4.757-6.003-8.341-5.877-10.633
			c-0.115-1.059,0.231-2.159,1.043-2.971L4.928,3.799C0.532,8.196,0.531,15.324,4.928,19.721z"/>
		
			<linearGradient id="SVGID_10_" gradientUnits="userSpaceOnUse" x1="6.6299" y1="3410.116" x2="6.6299" y2="3433.5161" gradientTransform="matrix(1 0 0 -1 -0.045 3439.0999)">
			<stop  offset="0" style="stop-color:#B42DA2"/>
			<stop  offset="0.4974" style="stop-color:#FFB79C"/>
			<stop  offset="1" style="stop-color:#F0E83F"/>
		</linearGradient>
		<path fill="url(#SVGID_10_)" d="M7.558,1.743C7.515,1.766,7.473,1.79,7.431,1.814C7.327,1.872,7.224,1.931,7.122,1.991
			C7.074,2.021,7.025,2.05,6.977,2.08C6.878,2.141,6.78,2.204,6.682,2.269C6.64,2.297,6.598,2.324,6.556,2.353
			C6.42,2.445,6.285,2.54,6.153,2.639C6.152,2.64,6.151,2.641,6.15,2.642C6.019,2.739,5.892,2.84,5.766,2.943
			C5.726,2.976,5.687,3.009,5.648,3.042C5.56,3.117,5.472,3.192,5.386,3.269C5.344,3.307,5.302,3.344,5.261,3.382
			C5.173,3.463,5.087,3.546,5.002,3.629c-0.033,0.033-0.067,0.065-0.1,0.098c-0.116,0.116-0.229,0.235-0.34,0.356
			C4.547,4.101,4.532,4.119,4.516,4.137c-0.094,0.105-0.187,0.211-0.277,0.32C4.205,4.497,4.172,4.539,4.138,4.58
			c-0.072,0.089-0.143,0.179-0.213,0.27c-0.034,0.044-0.067,0.089-0.1,0.133C3.752,5.084,3.68,5.185,3.61,5.287
			C3.586,5.322,3.561,5.355,3.538,5.39C3.446,5.527,3.357,5.665,3.271,5.806c-0.018,0.03-0.035,0.061-0.053,0.091
			C3.151,6.009,3.086,6.123,3.022,6.237C2.996,6.286,2.97,6.334,2.944,6.383C2.89,6.484,2.838,6.587,2.787,6.69
			C2.762,6.74,2.738,6.789,2.714,6.839C2.657,6.959,2.603,7.079,2.55,7.201C2.537,7.233,2.522,7.264,2.508,7.296
			C2.444,7.45,2.383,7.605,2.325,7.762C2.31,7.802,2.296,7.844,2.282,7.884C2.24,8.003,2.199,8.122,2.161,8.242
			C2.144,8.296,2.127,8.35,2.111,8.405c-0.034,0.113-0.066,0.226-0.097,0.34C2,8.798,1.986,8.85,1.972,8.903
			c-0.036,0.144-0.07,0.289-0.1,0.435C1.868,9.359,1.862,9.38,1.858,9.401c-0.034,0.167-0.064,0.336-0.09,0.505
			c-0.008,0.049-0.014,0.098-0.021,0.147C1.729,10.177,1.713,10.3,1.7,10.425c-0.006,0.059-0.012,0.118-0.018,0.177
			c-0.011,0.122-0.021,0.245-0.028,0.368c-0.003,0.054-0.007,0.108-0.01,0.162c-0.007,0.161-0.012,0.323-0.012,0.485H1.631v0.028
			c0,0.005,0,0.01,0,0.016c0,0.001,0,0.002,0,0.002c0,0.004,0,0.007,0,0.01v10.822h5.056v-3.099
			c0.14-5.766,1.796-8.613,3.363-10.015l0,0c0.035-0.044,0.073-0.085,0.11-0.128c0.029-0.033,0.059-0.066,0.09-0.099
			c0.038-0.04,0.077-0.08,0.117-0.119c0.036-0.035,0.074-0.068,0.112-0.101c0.06-0.053,0.121-0.104,0.184-0.153
			c0.046-0.036,0.092-0.071,0.14-0.105c0.039-0.028,0.079-0.054,0.12-0.08c0.05-0.032,0.102-0.063,0.154-0.093
			c0.036-0.021,0.072-0.042,0.108-0.062c0.085-0.045,0.171-0.087,0.26-0.125c0.031-0.014,0.063-0.025,0.095-0.038L7.558,1.743z"/>
		
			<linearGradient id="SVGID_11_" gradientUnits="userSpaceOnUse" x1="3.671" y1="3431.3032" x2="14.2926" y2="3434.7507" gradientTransform="matrix(1 0 0 -1 -0.045 3439.0999)">
			<stop  offset="0" style="stop-color:#DA5AE5"/>
			<stop  offset="0.5129" style="stop-color:#D28BFF"/>
			<stop  offset="1" style="stop-color:#002963"/>
		</linearGradient>
		<path fill="url(#SVGID_11_)" d="M10.183,0.829C7.403,1.515,5.03,3.235,3.494,5.558c6.893-0.166,10.143,1.653,11.674,3.363
			L10.183,0.829z"/>
	</g>
</g>
</svg>
