<?xml version="1.0" encoding="utf-8"?>
<!-- Generator: Adobe Illustrator 17.0.0, SVG Export Plug-In . SVG Version: 6.00 Build 0)  -->
<!DOCTYPE svg PUBLIC "-//W3C//DTD SVG 1.1//EN" "http://www.w3.org/Graphics/SVG/1.1/DTD/svg11.dtd">
<svg version="1.1" id="Layer_1" xmlns="http://www.w3.org/2000/svg" xmlns:xlink="http://www.w3.org/1999/xlink" x="0px" y="0px"
	 width="50px" height="70px" viewBox="0 0 50 70" enable-background="new 0 0 50 70" xml:space="preserve">
<g id="Layer_1_1_">
	<g>
		<path fill="#FFFFFF" d="M17.593,2.384L2.43,23.707v45.156l0,0c8.374,0,15.162-6.788,15.162-15.162L17.593,2.384L17.593,2.384z"/>
		<path opacity="0.5" fill="#FFFFFF" enable-background="new    " d="M12.567,42.544v4.366c0,6.838-1.925,13.54-5.555,19.336
			l-1.433,2.285c6.862-1.449,12.013-7.538,12.013-14.832V41.008L12.567,42.544z"/>
		<path fill="#FFFFFF" d="M22.294,16.732c0.082-0.032,0.162-0.068,0.245-0.098l0.006,0.006c0.768-0.275,1.592-0.431,2.454-0.431
			c3.544,0,6.498,2.526,7.159,5.876l14.39-5.301c-1.682-5.393-5.335-9.914-10.112-12.728l-6.323-0.628L17.607,2.185
			c-0.074,0.026-0.15,0.048-0.225,0.076c-0.106,0.038-0.215,0.078-0.321,0.118c-0.219,0.082-0.437,0.168-0.652,0.257
			c-0.1,0.04-0.198,0.08-0.297,0.122c-0.271,0.116-0.537,0.237-0.802,0.363c-0.038,0.018-0.076,0.034-0.112,0.052
			c-0.299,0.144-0.595,0.297-0.886,0.453L22.294,16.732z"/>
		<path fill="#FFFFFF" d="M29.569,18.017c1.664,1.339,2.733,3.388,2.733,5.69h15.269c0-12.466-10.104-22.57-22.57-22.57
			c-1.87,0-3.687,0.229-5.425,0.656L29.569,18.017z"/>
		<path fill="#FFFFFF" d="M40.961,7.746c-5.565-5.565-13.312-7.612-20.487-6.151c10.008,9.537,12.034,16.723,11.782,21.318
			c0.231,2.123-0.463,4.328-2.091,5.956l10.798,10.798C49.774,30.852,49.774,16.562,40.961,7.746z"/>
		<path fill="#FFFFFF" d="M47.571,23.707c0-7.871-4.03-14.795-10.138-18.835c0.333,13.819-3.314,20.335-6.742,23.404
			c-1.337,1.664-3.388,2.733-5.69,2.733v15.269C37.466,46.277,47.571,36.172,47.571,23.707z"/>
		<path fill="#FFFFFF" d="M40.959,39.667c5.565-5.565,7.612-13.312,6.151-20.487c-9.537,10.008-16.723,12.035-21.318,11.782
			c-2.123,0.231-4.328-0.463-5.956-2.091L9.038,39.669C17.855,48.48,32.146,48.48,40.959,39.667z"/>
		<path fill="#FFFFFF" d="M25,46.279c7.871,0,14.795-4.03,18.835-10.138c-13.819,0.333-20.335-3.314-23.404-6.742
			c-1.663-1.34-2.732-3.389-2.732-5.69H2.43C2.43,36.172,12.535,46.279,25,46.279z"/>
		<path fill="#FFFFFF" d="M9.04,39.669c5.565,5.565,13.312,7.612,20.487,6.151c-10.008-9.537-12.035-16.722-11.782-21.317
			c-0.23-2.124,0.463-4.329,2.091-5.957L9.04,7.748C0.225,16.564,0.225,30.854,9.04,39.669z"/>
		<path fill="#FFFFFF" d="M14.313,3.627c-0.086,0.046-0.17,0.094-0.255,0.142c-0.208,0.114-0.415,0.233-0.619,0.355
			c-0.096,0.058-0.194,0.118-0.291,0.178c-0.198,0.122-0.395,0.249-0.591,0.379c-0.084,0.056-0.168,0.11-0.253,0.166
			c-0.273,0.186-0.543,0.377-0.808,0.575c-0.002,0.002-0.004,0.004-0.006,0.006c-0.261,0.196-0.517,0.399-0.77,0.605
			c-0.08,0.064-0.158,0.13-0.237,0.196C10.307,6.377,10.13,6.53,9.958,6.684C9.874,6.76,9.79,6.834,9.707,6.911
			C9.531,7.073,9.358,7.24,9.188,7.406c-0.066,0.066-0.134,0.13-0.2,0.196c-0.231,0.233-0.459,0.471-0.68,0.714
			C8.276,8.352,8.246,8.388,8.214,8.422c-0.19,0.211-0.375,0.425-0.555,0.642C7.591,9.146,7.525,9.23,7.457,9.313
			C7.313,9.491,7.17,9.672,7.03,9.854c-0.068,0.088-0.134,0.178-0.2,0.267c-0.148,0.202-0.291,0.405-0.433,0.609
			c-0.046,0.07-0.096,0.136-0.142,0.206c-0.186,0.277-0.364,0.553-0.537,0.836c-0.036,0.06-0.07,0.122-0.106,0.182
			c-0.134,0.225-0.267,0.454-0.393,0.682c-0.052,0.098-0.104,0.195-0.156,0.293c-0.108,0.202-0.213,0.409-0.315,0.615
			c-0.048,0.1-0.098,0.198-0.146,0.299c-0.115,0.239-0.223,0.481-0.329,0.726c-0.026,0.064-0.056,0.126-0.084,0.19
			c-0.129,0.309-0.251,0.62-0.367,0.934c-0.03,0.08-0.058,0.164-0.086,0.245c-0.084,0.239-0.166,0.477-0.243,0.718
			c-0.034,0.108-0.068,0.217-0.1,0.327c-0.068,0.226-0.133,0.453-0.195,0.681C3.17,17.77,3.14,17.875,3.114,17.981
			c-0.072,0.289-0.14,0.579-0.2,0.872c-0.008,0.042-0.02,0.084-0.028,0.128c-0.069,0.335-0.129,0.674-0.181,1.013
			c-0.016,0.098-0.028,0.196-0.042,0.294c-0.036,0.247-0.068,0.496-0.094,0.744c-0.012,0.118-0.024,0.237-0.036,0.355
			c-0.022,0.245-0.042,0.491-0.056,0.738c-0.006,0.108-0.014,0.217-0.02,0.325c-0.014,0.323-0.024,0.648-0.024,0.972H2.431v0.056
			c0,0.01,0,0.02,0,0.032c0,0.002,0,0.004,0,0.004c0,0.008,0,0.014,0,0.02V45.23h10.136v-6.213c0.28-11.559,3.6-17.267,6.742-20.078
			l0,0c0.07-0.088,0.146-0.17,0.221-0.257c0.057-0.066,0.118-0.132,0.18-0.198c0.076-0.08,0.154-0.16,0.235-0.239
			c0.072-0.07,0.148-0.136,0.224-0.202c0.12-0.106,0.243-0.208,0.369-0.307c0.092-0.072,0.184-0.142,0.281-0.211
			c0.078-0.055,0.158-0.107,0.24-0.16c0.1-0.064,0.204-0.126,0.309-0.186c0.072-0.042,0.144-0.084,0.217-0.124
			c0.17-0.09,0.343-0.174,0.521-0.251c0.062-0.028,0.126-0.05,0.19-0.076L14.313,3.627z"/>
		<path fill="#FFFFFF" d="M19.575,1.792c-5.573,1.375-10.33,4.826-13.41,9.481c13.819-0.333,20.335,3.314,23.404,6.742L19.575,1.792
			z"/>
	</g>
</g>
<g id="Layer_1_copy">
	<g>
		
			<linearGradient id="SVGID_1_" gradientUnits="userSpaceOnUse" x1="580.3761" y1="2608.9407" x2="580.3761" y2="2655.8533" gradientTransform="matrix(1 0 0 -1 -570.365 2667.1799)">
			<stop  offset="0" style="stop-color:#B42DA2"/>
			<stop  offset="0.4974" style="stop-color:#FFB79C"/>
			<stop  offset="1" style="stop-color:#F0E83F"/>
		</linearGradient>
		<path fill="url(#SVGID_1_)" d="M17.592,2.384L2.43,23.707v45.156l0,0c8.374,0,15.162-6.788,15.162-15.162V2.384L17.592,2.384z"/>
		
			<linearGradient id="SVGID_2_" gradientUnits="userSpaceOnUse" x1="581.9516" y1="2619.1106" x2="581.9516" y2="2605.4802" gradientTransform="matrix(1 0 0 -1 -570.365 2667.1799)">
			<stop  offset="0" style="stop-color:#FFFFFF;stop-opacity:0.6"/>
			<stop  offset="1" style="stop-color:#FFFFFF;stop-opacity:0"/>
		</linearGradient>
		<path opacity="0.5" fill="url(#SVGID_2_)" enable-background="new    " d="M12.566,42.543v4.366c0,6.838-1.925,13.54-5.555,19.336
			L5.58,68.533c6.862-1.449,12.013-7.538,12.013-14.832V41.01L12.566,42.543z"/>
		
			<linearGradient id="SVGID_3_" gradientUnits="userSpaceOnUse" x1="600.7941" y1="2608.9407" x2="600.7941" y2="2655.8533" gradientTransform="matrix(1 0 0 -1 -570.365 2667.1799)">
			<stop  offset="0" style="stop-color:#B42DA2"/>
			<stop  offset="0.4974" style="stop-color:#FFB79C"/>
			<stop  offset="1" style="stop-color:#F0E83F"/>
		</linearGradient>
		<path fill="url(#SVGID_3_)" d="M22.293,16.733c0.082-0.032,0.162-0.068,0.245-0.098l0.006,0.006
			c0.768-0.275,1.592-0.431,2.454-0.431c3.544,0,6.498,2.526,7.159,5.876l14.39-5.301c-1.682-5.393-5.335-9.914-10.112-12.728
			l-6.321-0.63L17.606,2.184c-0.074,0.028-0.15,0.05-0.225,0.078C17.275,2.3,17.166,2.34,17.06,2.38
			c-0.219,0.082-0.437,0.168-0.652,0.257c-0.1,0.04-0.198,0.08-0.297,0.122c-0.271,0.116-0.537,0.237-0.802,0.363
			c-0.038,0.018-0.076,0.034-0.112,0.052c-0.299,0.144-0.593,0.297-0.886,0.453L22.293,16.733z"/>
		
			<linearGradient id="SVGID_4_" gradientUnits="userSpaceOnUse" x1="578.4967" y1="2646.1721" x2="599.7909" y2="2653.0833" gradientTransform="matrix(1 0 0 -1 -570.365 2667.1799)">
			<stop  offset="0" style="stop-color:#DA5AE5"/>
			<stop  offset="0.5129" style="stop-color:#D28BFF"/>
			<stop  offset="1" style="stop-color:#002963"/>
		</linearGradient>
		<path fill="url(#SVGID_4_)" d="M29.569,18.017c1.664,1.339,2.733,3.388,2.733,5.69h15.269c0-12.466-10.104-22.57-22.57-22.57
			c-1.87,0-3.687,0.229-5.425,0.656L29.569,18.017z"/>
		
			<linearGradient id="SVGID_5_" gradientUnits="userSpaceOnUse" x1="606.4256" y1="2646.355" x2="589.0066" y2="2650.8271" gradientTransform="matrix(1 0 0 -1 -570.365 2667.1799)">
			<stop  offset="0" style="stop-color:#B42DA2"/>
			<stop  offset="0.4974" style="stop-color:#FFB79C"/>
			<stop  offset="1" style="stop-color:#F0E83F"/>
		</linearGradient>
		<path fill="url(#SVGID_5_)" d="M40.96,7.747c-5.565-5.565-13.312-7.612-20.487-6.151c10.008,9.537,12.035,16.722,11.782,21.317
			c0.231,2.123-0.463,4.328-2.091,5.956l10.798,10.798C49.773,30.851,49.773,16.562,40.96,7.747z"/>
		
			<linearGradient id="SVGID_6_" gradientUnits="userSpaceOnUse" x1="595.1103" y1="2655.5186" x2="605.3839" y2="2637.3999" gradientTransform="matrix(1 0 0 -1 -570.365 2667.1799)">
			<stop  offset="0" style="stop-color:#DA5AE5"/>
			<stop  offset="0.5129" style="stop-color:#D28BFF"/>
			<stop  offset="1" style="stop-color:#002963"/>
		</linearGradient>
		<path fill="url(#SVGID_6_)" d="M47.57,23.707c0-7.871-4.03-14.795-10.138-18.835c0.333,13.819-3.314,20.335-6.742,23.404
			c-1.337,1.664-3.388,2.733-5.69,2.733v15.269C37.466,46.277,47.57,36.173,47.57,23.707z"/>
		
			<linearGradient id="SVGID_7_" gradientUnits="userSpaceOnUse" x1="598.5361" y1="2631.9224" x2="610.541" y2="2650.2827" gradientTransform="matrix(1 0 0 -1 -570.365 2667.1799)">
			<stop  offset="0" style="stop-color:#B42DA2"/>
			<stop  offset="0.4974" style="stop-color:#FFB79C"/>
			<stop  offset="1" style="stop-color:#F0E83F"/>
		</linearGradient>
		<path fill="url(#SVGID_7_)" d="M40.958,39.667c5.565-5.565,7.612-13.312,6.151-20.487c-9.537,10.008-16.722,12.035-21.317,11.782
			c-2.123,0.231-4.328-0.463-5.956-2.091L9.04,39.667C17.855,48.48,32.145,48.48,40.958,39.667z"/>
		
			<linearGradient id="SVGID_8_" gradientUnits="userSpaceOnUse" x1="612.0173" y1="2640.436" x2="588.295" y2="2632.9646" gradientTransform="matrix(1 0 0 -1 -570.365 2667.1799)">
			<stop  offset="0" style="stop-color:#DA5AE5"/>
			<stop  offset="0.5129" style="stop-color:#D28BFF"/>
			<stop  offset="1" style="stop-color:#002963"/>
		</linearGradient>
		<path fill="url(#SVGID_8_)" d="M25,46.278c7.871,0,14.795-4.03,18.835-10.138c-13.819,0.333-20.335-3.314-23.404-6.742
			c-1.664-1.339-2.733-3.388-2.733-5.69H2.43C2.43,36.173,12.534,46.278,25,46.278z"/>
		
			<linearGradient id="SVGID_9_" gradientUnits="userSpaceOnUse" x1="584.4135" y1="2639.7056" x2="605.3634" y2="2624.7581" gradientTransform="matrix(1 0 0 -1 -570.365 2667.1799)">
			<stop  offset="0" style="stop-color:#B42DA2"/>
			<stop  offset="0.4974" style="stop-color:#FFB79C"/>
			<stop  offset="1" style="stop-color:#F0E83F"/>
		</linearGradient>
		<path fill="url(#SVGID_9_)" d="M9.04,39.67c5.565,5.565,13.312,7.612,20.487,6.151c-10.008-9.538-12.035-16.723-11.783-21.318
			c-0.23-2.123,0.464-4.328,2.091-5.956L9.04,7.748C0.226,16.563,0.224,30.854,9.04,39.67z"/>
		
			<linearGradient id="SVGID_10_" gradientUnits="userSpaceOnUse" x1="582.7276" y1="2608.9407" x2="582.7276" y2="2655.8533" gradientTransform="matrix(1 0 0 -1 -570.365 2667.1799)">
			<stop  offset="0" style="stop-color:#B42DA2"/>
			<stop  offset="0.4974" style="stop-color:#FFB79C"/>
			<stop  offset="1" style="stop-color:#F0E83F"/>
		</linearGradient>
		<path fill="url(#SVGID_10_)" d="M14.312,3.627c-0.086,0.046-0.17,0.094-0.255,0.142c-0.208,0.116-0.415,0.235-0.619,0.355
			c-0.096,0.06-0.194,0.118-0.291,0.178c-0.198,0.122-0.395,0.249-0.591,0.379c-0.084,0.056-0.168,0.11-0.253,0.168
			c-0.273,0.184-0.543,0.375-0.808,0.573c-0.002,0.002-0.004,0.004-0.006,0.006c-0.263,0.194-0.517,0.397-0.77,0.603
			c-0.08,0.066-0.158,0.132-0.237,0.198c-0.176,0.15-0.353,0.301-0.525,0.455C9.873,6.759,9.789,6.833,9.706,6.91
			C9.53,7.072,9.357,7.24,9.187,7.405c-0.066,0.066-0.134,0.13-0.2,0.196C8.754,7.834,8.528,8.072,8.305,8.315
			c-0.03,0.036-0.06,0.072-0.092,0.108C8.025,8.634,7.838,8.846,7.658,9.065C7.59,9.145,7.524,9.229,7.456,9.312
			C7.312,9.49,7.169,9.671,7.029,9.853c-0.068,0.088-0.134,0.178-0.2,0.267c-0.146,0.202-0.291,0.405-0.431,0.609
			c-0.049,0.072-0.099,0.139-0.145,0.209c-0.184,0.275-0.363,0.551-0.535,0.834c-0.036,0.06-0.07,0.122-0.106,0.182
			c-0.134,0.225-0.265,0.453-0.393,0.682c-0.053,0.098-0.105,0.194-0.157,0.292c-0.108,0.202-0.213,0.409-0.315,0.615
			c-0.05,0.1-0.098,0.198-0.146,0.299c-0.114,0.241-0.223,0.482-0.329,0.726c-0.026,0.065-0.056,0.127-0.084,0.191
			c-0.128,0.309-0.251,0.619-0.367,0.934c-0.03,0.08-0.058,0.164-0.086,0.245c-0.084,0.239-0.166,0.477-0.243,0.718
			c-0.034,0.108-0.068,0.217-0.1,0.327c-0.068,0.227-0.132,0.453-0.194,0.682c-0.028,0.106-0.056,0.211-0.084,0.317
			c-0.072,0.289-0.14,0.579-0.2,0.872c-0.008,0.042-0.02,0.084-0.028,0.126c-0.068,0.335-0.128,0.674-0.18,1.012
			c-0.018,0.098-0.03,0.196-0.044,0.294c-0.036,0.249-0.068,0.495-0.094,0.746c-0.012,0.118-0.024,0.236-0.036,0.355
			c-0.022,0.244-0.042,0.491-0.056,0.737c-0.006,0.108-0.014,0.217-0.02,0.325c-0.014,0.323-0.024,0.648-0.024,0.972H2.43v0.057
			c0,0.01,0,0.02,0,0.032c0,0.002,0,0.004,0,0.004c0,0.008,0,0.014,0,0.02V45.23h10.136v-6.213
			c0.281-11.56,3.601-17.267,6.742-20.078l0,0c0.07-0.088,0.146-0.17,0.221-0.257c0.058-0.066,0.118-0.132,0.18-0.198
			c0.076-0.08,0.154-0.16,0.235-0.239c0.072-0.07,0.148-0.136,0.225-0.202c0.12-0.106,0.243-0.208,0.369-0.307
			c0.092-0.072,0.184-0.142,0.281-0.211c0.077-0.056,0.157-0.108,0.239-0.16c0.1-0.064,0.204-0.126,0.309-0.186
			c0.072-0.042,0.144-0.084,0.217-0.124c0.17-0.09,0.343-0.174,0.521-0.251c0.062-0.028,0.126-0.05,0.19-0.076L14.312,3.627z"/>
		
			<linearGradient id="SVGID_11_" gradientUnits="userSpaceOnUse" x1="576.7948" y1="2651.4158" x2="598.089" y2="2658.3274" gradientTransform="matrix(1 0 0 -1 -570.365 2667.1799)">
			<stop  offset="0" style="stop-color:#DA5AE5"/>
			<stop  offset="0.5129" style="stop-color:#D28BFF"/>
			<stop  offset="1" style="stop-color:#002963"/>
		</linearGradient>
		<path fill="url(#SVGID_11_)" d="M19.575,1.795C14.002,3.17,9.244,6.618,6.165,11.276c13.819-0.333,20.334,3.313,23.404,6.742
			L19.575,1.795z"/>
	</g>
</g>
</svg>
