<?xml version="1.0" encoding="utf-8"?>
<!-- Generator: Adobe Illustrator 17.0.0, SVG Export Plug-In . SVG Version: 6.00 Build 0)  -->
<!DOCTYPE svg PUBLIC "-//W3C//DTD SVG 1.1//EN" "http://www.w3.org/Graphics/SVG/1.1/DTD/svg11.dtd">
<svg version="1.1" id="Layer_1" xmlns="http://www.w3.org/2000/svg" xmlns:xlink="http://www.w3.org/1999/xlink" x="0px" y="0px"
	 width="70px" height="90px" viewBox="-10 -10 70 90" enable-background="new -10 -10 70 90" xml:space="preserve">
<g id="Layer_1_2_">
	<g>
		<path fill="#E9FF7F" d="M16.93-5.641L-2.332,21.446v57.363l0,0c10.638,0,19.261-8.623,19.261-19.261L16.93-5.641L16.93-5.641z"/>
		<path opacity="0.5" fill="#E9FF7F" enable-background="new    " d="M10.546,45.375v5.546c0,8.686-2.445,17.2-7.057,24.563
			l-1.82,2.903c8.717-1.841,15.26-9.576,15.26-18.841V43.424L10.546,45.375z"/>
		<path fill="#E9FF7F" d="M22.902,12.586c0.104-0.041,0.206-0.086,0.311-0.124l0.008,0.008c0.976-0.349,2.022-0.548,3.117-0.548
			c4.502,0,8.255,3.209,9.094,7.464l18.28-6.734C51.576,5.801,46.935,0.058,40.867-3.517l-8.032-0.798L16.948-5.894
			c-0.094,0.033-0.191,0.061-0.286,0.097c-0.135,0.048-0.273,0.099-0.408,0.15c-0.278,0.104-0.555,0.213-0.828,0.326
			c-0.127,0.051-0.252,0.102-0.377,0.155c-0.344,0.147-0.682,0.301-1.019,0.461c-0.048,0.023-0.097,0.043-0.142,0.066
			c-0.38,0.183-0.756,0.377-1.126,0.575L22.902,12.586z"/>
		<path fill="#E9FF7F" d="M32.144,14.218c2.114,1.701,3.472,4.304,3.472,7.228h19.397c0-15.836-12.835-28.671-28.671-28.671
			c-2.376,0-4.684,0.291-6.892,0.833L32.144,14.218z"/>
		<path fill="#E9FF7F" d="M46.615,1.171c-7.069-7.069-16.911-9.67-26.025-7.814C33.304,5.472,35.877,14.6,35.557,20.438
			c0.293,2.697-0.588,5.498-2.656,7.566l13.717,13.717C57.811,30.523,57.811,12.37,46.615,1.171z"/>
		<path fill="#E9FF7F" d="M55.012,21.446c0-9.999-5.119-18.794-12.879-23.927c0.423,17.555-4.21,25.832-8.565,29.731
			c-1.698,2.114-4.304,3.472-7.228,3.472v19.397C42.176,50.118,55.012,37.281,55.012,21.446z"/>
		<path fill="#E9FF7F" d="M46.613,41.721c7.069-7.069,9.67-16.911,7.814-26.025C42.311,28.409,33.183,30.984,27.346,30.662
			c-2.697,0.293-5.498-0.588-7.566-2.656L6.063,41.723C17.263,52.916,35.417,52.916,46.613,41.721z"/>
		<path fill="#E9FF7F" d="M26.34,50.12c9.999,0,18.794-5.119,23.927-12.879c-17.555,0.423-25.832-4.21-29.731-8.565
			c-2.113-1.702-3.471-4.305-3.471-7.228H-2.332C-2.332,37.281,10.505,50.12,26.34,50.12z"/>
		<path fill="#E9FF7F" d="M6.065,41.723c7.069,7.069,16.911,9.67,26.025,7.814c-12.713-12.115-15.288-21.242-14.967-27.08
			c-0.292-2.698,0.588-5.499,2.656-7.567L6.065,1.173C-5.133,12.372-5.133,30.525,6.065,41.723z"/>
		<path fill="#E9FF7F" d="M12.764-4.062c-0.109,0.058-0.216,0.119-0.324,0.18c-0.264,0.145-0.527,0.296-0.786,0.451
			c-0.122,0.074-0.246,0.15-0.37,0.226c-0.252,0.155-0.502,0.316-0.751,0.481c-0.107,0.071-0.213,0.14-0.321,0.211
			c-0.347,0.236-0.69,0.479-1.026,0.73C9.183-1.779,9.18-1.777,9.178-1.774C8.846-1.525,8.521-1.267,8.199-1.005
			C8.098-0.924,7.999-0.84,7.898-0.756C7.675-0.568,7.45-0.374,7.231-0.178C7.125-0.082,7.018,0.012,6.913,0.11
			C6.689,0.316,6.469,0.528,6.253,0.739c-0.084,0.084-0.17,0.165-0.254,0.249C5.706,1.284,5.416,1.586,5.135,1.895
			C5.095,1.94,5.057,1.986,5.016,2.029C4.775,2.297,4.54,2.569,4.311,2.845c-0.086,0.104-0.17,0.211-0.257,0.316
			C3.871,3.387,3.69,3.617,3.512,3.848C3.426,3.96,3.342,4.075,3.258,4.188c-0.188,0.257-0.37,0.514-0.55,0.774
			C2.649,5.05,2.586,5.134,2.527,5.223C2.291,5.575,2.065,5.925,1.845,6.285C1.799,6.361,1.756,6.44,1.711,6.516
			C1.54,6.802,1.371,7.093,1.211,7.382C1.145,7.507,1.079,7.63,1.013,7.755c-0.137,0.257-0.271,0.52-0.4,0.781
			c-0.061,0.127-0.124,0.252-0.185,0.38C0.281,9.219,0.144,9.527,0.01,9.838c-0.033,0.081-0.071,0.16-0.107,0.241
			c-0.164,0.393-0.319,0.788-0.466,1.186c-0.038,0.102-0.074,0.208-0.109,0.311c-0.107,0.304-0.211,0.606-0.309,0.912
			c-0.043,0.137-0.086,0.276-0.127,0.415c-0.086,0.287-0.169,0.575-0.248,0.865c-0.036,0.135-0.074,0.268-0.107,0.403
			c-0.091,0.367-0.178,0.736-0.254,1.108c-0.01,0.053-0.025,0.107-0.036,0.163c-0.088,0.426-0.164,0.856-0.23,1.287
			c-0.02,0.124-0.036,0.249-0.053,0.373c-0.046,0.314-0.086,0.63-0.119,0.945c-0.015,0.15-0.03,0.301-0.046,0.451
			c-0.028,0.311-0.053,0.624-0.071,0.938c-0.008,0.137-0.018,0.276-0.025,0.413c-0.018,0.41-0.03,0.823-0.03,1.235H-2.33v0.071
			c0,0.013,0,0.025,0,0.041c0,0.003,0,0.005,0,0.005c0,0.01,0,0.018,0,0.025v27.561h12.876v-7.893
			c0.356-14.684,4.573-21.935,8.565-25.506l0,0c0.089-0.112,0.185-0.216,0.281-0.326c0.072-0.084,0.15-0.168,0.229-0.252
			c0.097-0.102,0.196-0.203,0.299-0.304c0.091-0.089,0.188-0.173,0.285-0.257c0.152-0.135,0.309-0.264,0.469-0.39
			c0.117-0.091,0.234-0.18,0.357-0.268c0.099-0.07,0.201-0.136,0.305-0.203c0.127-0.081,0.259-0.16,0.393-0.236
			c0.091-0.053,0.183-0.107,0.276-0.158c0.216-0.114,0.436-0.221,0.662-0.319c0.079-0.036,0.16-0.064,0.241-0.097L12.764-4.062z"/>
		<path fill="#E9FF7F" d="M19.448-6.393C12.369-4.646,6.326-0.262,2.413,5.651c17.555-0.423,25.832,4.21,29.731,8.565L19.448-6.393z
			"/>
	</g>
</g>
<g id="Layer_1_copy_1_">
	<g>
		<path fill="#E9FF7F" d="M16.929-5.641L-2.332,21.446v57.363l0,0c10.638,0,19.261-8.623,19.261-19.261V-5.641L16.929-5.641z"/>
		<path opacity="0.5" fill="#E9FF7F" enable-background="new    " d="M10.544,45.374v5.546c0,8.686-2.445,17.2-7.057,24.563
			L1.67,78.39c8.717-1.841,15.26-9.576,15.26-18.841V43.427L10.544,45.374z"/>
		<path fill="#E9FF7F" d="M22.901,12.587c0.104-0.041,0.206-0.086,0.311-0.124l0.008,0.008c0.976-0.349,2.022-0.548,3.117-0.548
			c4.502,0,8.255,3.209,9.094,7.464l18.28-6.734C51.575,5.802,46.934,0.059,40.866-3.516l-8.03-0.8L16.947-5.895
			c-0.094,0.036-0.191,0.064-0.286,0.099c-0.135,0.048-0.273,0.099-0.408,0.15c-0.278,0.104-0.555,0.213-0.828,0.326
			c-0.127,0.051-0.252,0.102-0.377,0.155c-0.344,0.147-0.682,0.301-1.019,0.461c-0.048,0.023-0.097,0.043-0.142,0.066
			c-0.38,0.183-0.753,0.377-1.126,0.575L22.901,12.587z"/>
		<path fill="#E9FF7F" d="M32.144,14.218c2.114,1.701,3.472,4.304,3.472,7.228h19.397c0-15.836-12.835-28.671-28.671-28.671
			c-2.376,0-4.684,0.291-6.892,0.833L32.144,14.218z"/>
		<path fill="#E9FF7F" d="M46.614,1.172c-7.069-7.069-16.911-9.67-26.025-7.814C33.302,5.473,35.877,14.6,35.556,20.438
			c0.293,2.697-0.588,5.498-2.656,7.566l13.717,13.717C57.809,30.521,57.809,12.37,46.614,1.172z"/>
		<path fill="#E9FF7F" d="M55.011,21.446c0-9.999-5.119-18.794-12.879-23.927c0.423,17.555-4.21,25.832-8.565,29.731
			c-1.698,2.114-4.304,3.472-7.228,3.472v19.397C42.176,50.118,55.011,37.282,55.011,21.446z"/>
		<path fill="#E9FF7F" d="M46.612,41.721c7.069-7.069,9.67-16.911,7.814-26.025C42.31,28.409,33.183,30.984,27.346,30.662
			c-2.697,0.293-5.498-0.588-7.566-2.656L6.065,41.721C17.263,52.916,35.416,52.916,46.612,41.721z"/>
		<path fill="#E9FF7F" d="M26.34,50.119c9.999,0,18.794-5.119,23.927-12.879c-17.555,0.423-25.832-4.21-29.731-8.565
			c-2.114-1.701-3.472-4.304-3.472-7.228H-2.332C-2.332,37.282,10.504,50.119,26.34,50.119z"/>
		<path fill="#E9FF7F" d="M6.065,41.724c7.069,7.069,16.911,9.67,26.025,7.814C19.377,37.422,16.802,28.295,17.122,22.457
			c-0.292-2.697,0.589-5.498,2.656-7.566L6.065,1.173C-5.131,12.371-5.134,30.525,6.065,41.724z"/>
		<path fill="#E9FF7F" d="M12.762-4.062c-0.109,0.058-0.216,0.119-0.324,0.18c-0.264,0.147-0.527,0.299-0.786,0.451
			c-0.122,0.076-0.246,0.15-0.37,0.226c-0.252,0.155-0.502,0.316-0.751,0.481c-0.107,0.071-0.213,0.14-0.321,0.213
			c-0.347,0.234-0.69,0.476-1.026,0.728C9.181-1.779,9.179-1.777,9.176-1.774C8.842-1.528,8.52-1.27,8.198-1.008
			C8.097-0.924,7.997-0.84,7.897-0.756C7.673-0.566,7.449-0.374,7.23-0.178C7.123-0.083,7.017,0.011,6.911,0.109
			C6.688,0.314,6.468,0.528,6.252,0.737c-0.084,0.084-0.17,0.165-0.254,0.249C5.702,1.282,5.415,1.585,5.132,1.893
			C5.093,1.939,5.055,1.985,5.015,2.031C4.776,2.299,4.538,2.568,4.31,2.846C4.223,2.948,4.139,3.054,4.053,3.16
			C3.87,3.386,3.688,3.616,3.511,3.847C3.424,3.959,3.34,4.073,3.257,4.186C3.071,4.443,2.887,4.701,2.709,4.96
			C2.647,5.051,2.583,5.137,2.525,5.225c-0.234,0.349-0.461,0.7-0.68,1.059C1.799,6.361,1.756,6.44,1.711,6.516
			C1.54,6.802,1.374,7.092,1.211,7.382C1.144,7.507,1.078,7.629,1.012,7.753c-0.137,0.257-0.271,0.52-0.4,0.781
			c-0.064,0.127-0.124,0.252-0.185,0.38C0.281,9.221,0.143,9.527,0.008,9.837c-0.033,0.083-0.071,0.161-0.107,0.243
			c-0.163,0.393-0.319,0.786-0.466,1.186c-0.038,0.102-0.074,0.208-0.109,0.311c-0.107,0.304-0.211,0.606-0.309,0.912
			c-0.043,0.137-0.086,0.276-0.127,0.415c-0.086,0.288-0.168,0.575-0.246,0.866c-0.036,0.135-0.071,0.268-0.107,0.403
			c-0.091,0.367-0.178,0.736-0.254,1.108c-0.01,0.053-0.025,0.107-0.036,0.16c-0.086,0.426-0.163,0.856-0.229,1.286
			c-0.023,0.124-0.038,0.249-0.056,0.373c-0.046,0.316-0.086,0.629-0.119,0.948c-0.015,0.15-0.03,0.3-0.046,0.451
			c-0.028,0.31-0.053,0.624-0.071,0.936c-0.008,0.137-0.018,0.276-0.025,0.413c-0.018,0.41-0.03,0.823-0.03,1.235h-0.003v0.072
			c0,0.013,0,0.025,0,0.041c0,0.003,0,0.005,0,0.005c0,0.01,0,0.018,0,0.025v27.561h12.876v-7.893
			c0.357-14.685,4.574-21.935,8.565-25.506l0,0c0.089-0.112,0.185-0.216,0.281-0.326c0.074-0.084,0.15-0.168,0.229-0.252
			c0.097-0.102,0.196-0.203,0.299-0.304c0.091-0.089,0.188-0.173,0.286-0.257c0.152-0.135,0.309-0.264,0.469-0.39
			c0.117-0.091,0.234-0.18,0.357-0.268c0.098-0.071,0.199-0.137,0.304-0.203c0.127-0.081,0.259-0.16,0.393-0.236
			c0.091-0.053,0.183-0.107,0.276-0.158c0.216-0.114,0.436-0.221,0.662-0.319c0.079-0.036,0.16-0.064,0.241-0.097L12.762-4.062z"/>
		<path fill="#E9FF7F" d="M19.448-6.389C12.369-4.642,6.324-0.262,2.413,5.655c17.555-0.423,25.831,4.209,29.731,8.565L19.448-6.389
			z"/>
	</g>
</g>
<g id="Layer_1_1_">
	<g>
		<path fill="#FFFFFF" d="M15.591-6.433L-3.671,20.654v57.363l0,0c10.638,0,19.261-8.623,19.261-19.261L15.591-6.433L15.591-6.433z"
			/>
		<path opacity="0.5" fill="#FFFFFF" enable-background="new    " d="M9.206,44.583v5.546c0,8.686-2.445,17.2-7.057,24.563
			l-1.82,2.903c8.717-1.841,15.26-9.576,15.26-18.841V42.632L9.206,44.583z"/>
		<path fill="#FFFFFF" d="M21.563,11.794c0.104-0.041,0.206-0.086,0.311-0.124l0.008,0.008c0.976-0.349,2.022-0.548,3.117-0.548
			c4.502,0,8.255,3.209,9.094,7.464l18.28-6.734C50.236,5.009,45.596-0.734,39.527-4.309l-8.032-0.798L15.609-6.686
			c-0.094,0.033-0.191,0.061-0.286,0.097c-0.135,0.048-0.273,0.099-0.408,0.15c-0.278,0.104-0.555,0.213-0.828,0.326
			c-0.127,0.051-0.252,0.102-0.377,0.155c-0.344,0.147-0.682,0.301-1.019,0.461c-0.048,0.023-0.097,0.043-0.142,0.066
			c-0.38,0.183-0.756,0.377-1.126,0.575L21.563,11.794z"/>
		<path fill="#FFFFFF" d="M30.804,13.426c2.114,1.701,3.472,4.304,3.472,7.228h19.397c0-15.836-12.835-28.671-28.671-28.671
			c-2.376,0-4.684,0.291-6.892,0.833L30.804,13.426z"/>
		<path fill="#FFFFFF" d="M45.276,0.379c-7.069-7.069-16.911-9.67-26.025-7.814C31.964,4.68,34.538,13.808,34.218,19.646
			c0.293,2.697-0.588,5.498-2.656,7.566l13.717,13.717C56.471,29.731,56.471,11.578,45.276,0.379z"/>
		<path fill="#FFFFFF" d="M53.673,20.654c0-9.999-5.119-18.794-12.879-23.927c0.423,17.555-4.21,25.832-8.565,29.731
			c-1.698,2.114-4.304,3.472-7.228,3.472v19.397C40.836,49.325,53.673,36.489,53.673,20.654z"/>
		<path fill="#FFFFFF" d="M45.273,40.929c7.069-7.069,9.67-16.911,7.814-26.025C40.972,27.617,31.843,30.192,26.006,29.87
			c-2.697,0.293-5.498-0.588-7.566-2.656L4.723,40.931C15.924,52.124,34.078,52.124,45.273,40.929z"/>
		<path fill="#FFFFFF" d="M25,49.328c9.999,0,18.794-5.119,23.927-12.879c-17.555,0.423-25.832-4.21-29.731-8.565
			c-2.113-1.702-3.471-4.305-3.471-7.228H-3.671C-3.671,36.489,9.165,49.328,25,49.328z"/>
		<path fill="#FFFFFF" d="M4.726,40.931c7.069,7.069,16.911,9.67,26.025,7.814C18.037,36.63,15.462,27.503,15.784,21.665
			c-0.292-2.698,0.588-5.499,2.656-7.567L4.726,0.381C-6.472,11.58-6.472,29.733,4.726,40.931z"/>
		<path fill="#FFFFFF" d="M11.424-4.854c-0.109,0.058-0.216,0.119-0.324,0.18c-0.264,0.145-0.527,0.296-0.786,0.451
			c-0.122,0.074-0.246,0.15-0.37,0.226C9.693-3.841,9.442-3.68,9.193-3.515C9.087-3.444,8.98-3.375,8.872-3.304
			c-0.347,0.236-0.69,0.479-1.026,0.73C7.843-2.571,7.84-2.569,7.838-2.566C7.506-2.317,7.181-2.059,6.86-1.798
			C6.758-1.716,6.659-1.632,6.559-1.549C6.335-1.361,6.11-1.166,5.892-0.971C5.785-0.874,5.678-0.78,5.573-0.682
			C5.349-0.476,5.13-0.264,4.914-0.053C4.83,0.03,4.743,0.112,4.66,0.196C4.366,0.492,4.077,0.794,3.796,1.103
			C3.755,1.148,3.717,1.194,3.676,1.237C3.435,1.505,3.2,1.777,2.971,2.053c-0.086,0.104-0.17,0.211-0.257,0.316
			C2.532,2.595,2.35,2.825,2.172,3.056c-0.086,0.112-0.17,0.226-0.254,0.339C1.73,3.652,1.549,3.91,1.368,4.169
			C1.31,4.258,1.246,4.342,1.188,4.431C0.952,4.783,0.725,5.133,0.506,5.493C0.46,5.569,0.417,5.648,0.371,5.724
			C0.201,6.01,0.032,6.301-0.128,6.59C-0.194,6.715-0.26,6.838-0.326,6.963c-0.137,0.257-0.271,0.52-0.4,0.781
			c-0.061,0.127-0.124,0.252-0.185,0.38C-1.058,8.427-1.195,8.735-1.33,9.046c-0.033,0.081-0.071,0.16-0.107,0.241
			c-0.164,0.393-0.319,0.788-0.466,1.186c-0.038,0.102-0.074,0.208-0.109,0.311c-0.107,0.304-0.211,0.606-0.309,0.912
			c-0.043,0.137-0.086,0.276-0.127,0.415c-0.086,0.287-0.169,0.575-0.248,0.865c-0.036,0.135-0.074,0.268-0.107,0.403
			c-0.091,0.367-0.178,0.736-0.254,1.108c-0.01,0.053-0.025,0.107-0.036,0.163c-0.088,0.426-0.164,0.856-0.23,1.287
			c-0.02,0.124-0.036,0.249-0.053,0.373c-0.046,0.314-0.086,0.63-0.119,0.945c-0.015,0.15-0.03,0.301-0.046,0.451
			c-0.028,0.311-0.053,0.624-0.071,0.938c-0.008,0.137-0.018,0.276-0.025,0.413c-0.018,0.41-0.03,0.823-0.03,1.235H-3.67v0.071
			c0,0.013,0,0.025,0,0.041c0,0.003,0,0.005,0,0.005c0,0.01,0,0.018,0,0.025v27.561H9.206v-7.893
			c0.356-14.684,4.573-21.935,8.565-25.506l0,0c0.089-0.112,0.185-0.216,0.281-0.326c0.072-0.084,0.15-0.168,0.229-0.252
			c0.097-0.102,0.196-0.203,0.299-0.304c0.091-0.089,0.188-0.173,0.285-0.257c0.152-0.135,0.309-0.264,0.469-0.39
			c0.117-0.091,0.234-0.18,0.357-0.268c0.099-0.07,0.201-0.136,0.305-0.203c0.127-0.081,0.259-0.16,0.393-0.236
			c0.091-0.053,0.183-0.107,0.276-0.158c0.216-0.114,0.436-0.221,0.662-0.319c0.079-0.036,0.16-0.064,0.241-0.097L11.424-4.854z"/>
		<path fill="#FFFFFF" d="M18.109-7.185C11.029-5.438,4.986-1.054,1.073,4.859c17.555-0.423,25.832,4.21,29.731,8.565L18.109-7.185z
			"/>
	</g>
</g>
<g id="Layer_1_copy">
	<g>
		
			<linearGradient id="SVGID_1_" gradientUnits="userSpaceOnUse" x1="861.4841" y1="-2164.1985" x2="861.4841" y2="-2223.7927" gradientTransform="matrix(1 0 0 1 -855.525 2228.72)">
			<stop  offset="0" style="stop-color:#B42DA2"/>
			<stop  offset="0.4974" style="stop-color:#FFB79C"/>
			<stop  offset="1" style="stop-color:#F0E83F"/>
		</linearGradient>
		<path fill="url(#SVGID_1_)" d="M15.589-6.433L-3.671,20.654v57.363l0,0c10.638,0,19.261-8.623,19.261-19.261V-6.433L15.589-6.433z
			"/>
		
			<linearGradient id="SVGID_2_" gradientUnits="userSpaceOnUse" x1="863.4855" y1="-2177.1177" x2="863.4855" y2="-2159.8027" gradientTransform="matrix(1 0 0 1 -855.525 2228.72)">
			<stop  offset="0" style="stop-color:#FFFFFF;stop-opacity:0.6"/>
			<stop  offset="1" style="stop-color:#FFFFFF;stop-opacity:0"/>
		</linearGradient>
		<path opacity="0.5" fill="url(#SVGID_2_)" enable-background="new    " d="M9.205,44.582v5.546c0,8.686-2.445,17.2-7.057,24.563
			L0.33,77.598c8.717-1.841,15.26-9.576,15.26-18.841V42.635L9.205,44.582z"/>
		
			<linearGradient id="SVGID_3_" gradientUnits="userSpaceOnUse" x1="887.4216" y1="-2164.1985" x2="887.4216" y2="-2223.7927" gradientTransform="matrix(1 0 0 1 -855.525 2228.72)">
			<stop  offset="0" style="stop-color:#B42DA2"/>
			<stop  offset="0.4974" style="stop-color:#FFB79C"/>
			<stop  offset="1" style="stop-color:#F0E83F"/>
		</linearGradient>
		<path fill="url(#SVGID_3_)" d="M21.561,11.795c0.104-0.041,0.206-0.086,0.311-0.124l0.008,0.008
			c0.976-0.349,2.022-0.548,3.117-0.548c4.502,0,8.255,3.209,9.094,7.464l18.28-6.734C50.235,5.01,45.595-0.733,39.526-4.308
			l-8.03-0.8L15.607-6.687c-0.094,0.036-0.191,0.064-0.286,0.099c-0.135,0.048-0.273,0.099-0.408,0.15
			c-0.278,0.104-0.555,0.213-0.828,0.326c-0.127,0.051-0.252,0.102-0.377,0.155c-0.344,0.147-0.682,0.301-1.019,0.461
			c-0.048,0.023-0.097,0.043-0.142,0.066c-0.38,0.183-0.753,0.377-1.126,0.575L21.561,11.795z"/>
		
			<linearGradient id="SVGID_4_" gradientUnits="userSpaceOnUse" x1="859.0966" y1="-2211.4951" x2="886.1472" y2="-2220.2747" gradientTransform="matrix(1 0 0 1 -855.525 2228.72)">
			<stop  offset="0" style="stop-color:#DA5AE5"/>
			<stop  offset="0.5129" style="stop-color:#D28BFF"/>
			<stop  offset="1" style="stop-color:#002963"/>
		</linearGradient>
		<path fill="url(#SVGID_4_)" d="M30.804,13.426c2.114,1.701,3.472,4.304,3.472,7.228h19.397c0-15.836-12.835-28.671-28.671-28.671
			c-2.376,0-4.684,0.291-6.892,0.833L30.804,13.426z"/>
		
			<linearGradient id="SVGID_5_" gradientUnits="userSpaceOnUse" x1="894.5754" y1="-2211.7261" x2="872.4476" y2="-2217.4072" gradientTransform="matrix(1 0 0 1 -855.525 2228.72)">
			<stop  offset="0" style="stop-color:#B42DA2"/>
			<stop  offset="0.4974" style="stop-color:#FFB79C"/>
			<stop  offset="1" style="stop-color:#F0E83F"/>
		</linearGradient>
		<path fill="url(#SVGID_5_)" d="M45.274,0.38C38.205-6.69,28.364-9.29,19.249-7.434c12.713,12.115,15.288,21.242,14.967,27.08
			c0.293,2.697-0.588,5.498-2.656,7.566l13.717,13.717C56.47,29.729,56.47,11.578,45.274,0.38z"/>
		
			<linearGradient id="SVGID_6_" gradientUnits="userSpaceOnUse" x1="880.2011" y1="-2223.3674" x2="893.252" y2="-2200.3508" gradientTransform="matrix(1 0 0 1 -855.525 2228.72)">
			<stop  offset="0" style="stop-color:#DA5AE5"/>
			<stop  offset="0.5129" style="stop-color:#D28BFF"/>
			<stop  offset="1" style="stop-color:#002963"/>
		</linearGradient>
		<path fill="url(#SVGID_6_)" d="M53.671,20.654c0-9.999-5.119-18.794-12.879-23.927c0.423,17.555-4.21,25.832-8.565,29.731
			C30.53,28.572,27.924,29.93,25,29.93v19.397C40.836,49.325,53.671,36.49,53.671,20.654z"/>
		
			<linearGradient id="SVGID_7_" gradientUnits="userSpaceOnUse" x1="884.5529" y1="-2193.3931" x2="899.8031" y2="-2216.7166" gradientTransform="matrix(1 0 0 1 -855.525 2228.72)">
			<stop  offset="0" style="stop-color:#B42DA2"/>
			<stop  offset="0.4974" style="stop-color:#FFB79C"/>
			<stop  offset="1" style="stop-color:#F0E83F"/>
		</linearGradient>
		<path fill="url(#SVGID_7_)" d="M45.272,40.929c7.069-7.069,9.67-16.911,7.814-26.025C40.971,27.617,31.843,30.192,26.006,29.87
			c-2.697,0.293-5.498-0.588-7.566-2.656L4.726,40.929C15.924,52.124,34.077,52.124,45.272,40.929z"/>
		
			<linearGradient id="SVGID_8_" gradientUnits="userSpaceOnUse" x1="901.6786" y1="-2204.2085" x2="871.5436" y2="-2194.7173" gradientTransform="matrix(1 0 0 1 -855.525 2228.72)">
			<stop  offset="0" style="stop-color:#DA5AE5"/>
			<stop  offset="0.5129" style="stop-color:#D28BFF"/>
			<stop  offset="1" style="stop-color:#002963"/>
		</linearGradient>
		<path fill="url(#SVGID_8_)" d="M25,49.327c9.999,0,18.794-5.119,23.927-12.879c-17.555,0.423-25.832-4.21-29.731-8.565
			c-2.114-1.701-3.472-4.304-3.472-7.228H-3.671C-3.671,36.49,9.164,49.327,25,49.327z"/>
		
			<linearGradient id="SVGID_9_" gradientUnits="userSpaceOnUse" x1="866.6131" y1="-2203.28" x2="893.2263" y2="-2184.2917" gradientTransform="matrix(1 0 0 1 -855.525 2228.72)">
			<stop  offset="0" style="stop-color:#B42DA2"/>
			<stop  offset="0.4974" style="stop-color:#FFB79C"/>
			<stop  offset="1" style="stop-color:#F0E83F"/>
		</linearGradient>
		<path fill="url(#SVGID_9_)" d="M4.726,40.932c7.069,7.069,16.911,9.67,26.025,7.814C18.037,36.63,15.462,27.503,15.783,21.665
			c-0.292-2.697,0.589-5.498,2.656-7.566L4.726,0.381C-6.471,11.579-6.474,29.733,4.726,40.932z"/>
		
			<linearGradient id="SVGID_10_" gradientUnits="userSpaceOnUse" x1="864.4713" y1="-2164.1985" x2="864.4713" y2="-2223.7927" gradientTransform="matrix(1 0 0 1 -855.525 2228.72)">
			<stop  offset="0" style="stop-color:#B42DA2"/>
			<stop  offset="0.4974" style="stop-color:#FFB79C"/>
			<stop  offset="1" style="stop-color:#F0E83F"/>
		</linearGradient>
		<path fill="url(#SVGID_10_)" d="M11.423-4.854c-0.109,0.058-0.216,0.119-0.324,0.18c-0.264,0.147-0.527,0.299-0.786,0.451
			c-0.122,0.076-0.246,0.15-0.37,0.226C9.691-3.841,9.441-3.68,9.192-3.515c-0.107,0.071-0.213,0.14-0.321,0.213
			c-0.347,0.234-0.69,0.476-1.026,0.728C7.842-2.571,7.839-2.569,7.837-2.566C7.503-2.32,7.18-2.062,6.859-1.8
			C6.757-1.716,6.658-1.632,6.557-1.549C6.334-1.358,6.109-1.166,5.891-0.971C5.784-0.875,5.677-0.781,5.572-0.683
			C5.348-0.478,5.128-0.264,4.912-0.055c-0.084,0.084-0.17,0.165-0.254,0.249C4.362,0.49,4.075,0.793,3.792,1.101
			C3.754,1.147,3.716,1.193,3.675,1.239C3.436,1.507,3.199,1.776,2.97,2.054C2.884,2.156,2.8,2.262,2.713,2.368
			C2.531,2.594,2.349,2.824,2.171,3.055c-0.086,0.112-0.17,0.226-0.254,0.339c-0.185,0.257-0.37,0.514-0.548,0.774
			C1.307,4.259,1.244,4.345,1.185,4.433c-0.234,0.349-0.461,0.7-0.68,1.059C0.46,5.569,0.417,5.648,0.371,5.724
			C0.201,6.01,0.034,6.3-0.128,6.59c-0.067,0.124-0.133,0.246-0.199,0.371c-0.137,0.257-0.271,0.52-0.4,0.781
			c-0.064,0.127-0.124,0.252-0.185,0.38c-0.145,0.306-0.283,0.612-0.418,0.922c-0.033,0.083-0.071,0.161-0.107,0.243
			c-0.163,0.393-0.319,0.786-0.466,1.186c-0.038,0.102-0.074,0.208-0.109,0.311c-0.107,0.304-0.211,0.606-0.309,0.912
			c-0.043,0.137-0.086,0.276-0.127,0.415c-0.086,0.288-0.168,0.575-0.246,0.866c-0.036,0.135-0.071,0.268-0.107,0.403
			c-0.091,0.367-0.178,0.736-0.254,1.108c-0.01,0.053-0.025,0.107-0.036,0.16c-0.086,0.426-0.163,0.856-0.229,1.286
			c-0.023,0.124-0.038,0.249-0.056,0.373c-0.046,0.316-0.086,0.629-0.119,0.948c-0.015,0.15-0.03,0.3-0.046,0.451
			c-0.028,0.31-0.053,0.624-0.071,0.936c-0.008,0.137-0.018,0.276-0.025,0.413c-0.018,0.41-0.03,0.823-0.03,1.235h-0.003v0.072
			c0,0.013,0,0.025,0,0.041c0,0.003,0,0.005,0,0.005c0,0.01,0,0.018,0,0.025v27.561H9.205v-7.893
			c0.357-14.685,4.574-21.935,8.565-25.506l0,0c0.089-0.112,0.185-0.216,0.281-0.326c0.074-0.084,0.15-0.168,0.229-0.252
			c0.097-0.102,0.196-0.203,0.299-0.304c0.091-0.089,0.188-0.173,0.286-0.257c0.152-0.135,0.309-0.264,0.469-0.39
			c0.117-0.091,0.234-0.18,0.357-0.268c0.098-0.071,0.199-0.137,0.304-0.203c0.127-0.081,0.259-0.16,0.393-0.236
			c0.091-0.053,0.183-0.107,0.276-0.158c0.216-0.114,0.436-0.221,0.662-0.319c0.079-0.036,0.16-0.064,0.241-0.097L11.423-4.854z"/>
		
			<linearGradient id="SVGID_11_" gradientUnits="userSpaceOnUse" x1="856.935" y1="-2218.1553" x2="883.9855" y2="-2226.9353" gradientTransform="matrix(1 0 0 1 -855.525 2228.72)">
			<stop  offset="0" style="stop-color:#DA5AE5"/>
			<stop  offset="0.5129" style="stop-color:#D28BFF"/>
			<stop  offset="1" style="stop-color:#002963"/>
		</linearGradient>
		<path fill="url(#SVGID_11_)" d="M18.109-7.181C11.029-5.434,4.985-1.054,1.073,4.863c17.555-0.423,25.831,4.209,29.731,8.565
			L18.109-7.181z"/>
	</g>
</g>
</svg>
