<?xml version="1.0" encoding="utf-8"?>
<!-- Generator: Adobe Illustrator 17.0.0, SVG Export Plug-In . SVG Version: 6.00 Build 0)  -->
<!DOCTYPE svg PUBLIC "-//W3C//DTD SVG 1.1//EN" "http://www.w3.org/Graphics/SVG/1.1/DTD/svg11.dtd">
<svg version="1.1" id="Layer_1" xmlns="http://www.w3.org/2000/svg" xmlns:xlink="http://www.w3.org/1999/xlink" x="0px" y="0px"
	 width="1425.286px" height="1586.96px" viewBox="0 0 1425.286 1586.96" enable-background="new 0 0 1425.286 1586.96"
	 xml:space="preserve">
<g>
	<g>
		<g>
			
				<linearGradient id="SVGID_1_" gradientUnits="userSpaceOnUse" x1="1263.9902" y1="1447.0465" x2="981.4187" y2="2228.533" gradientTransform="matrix(1 0 0 -1 -212.7 2913.4797)">
				<stop  offset="0" style="stop-color:#00C5DC"/>
				<stop  offset="1" style="stop-color:#005484"/>
			</linearGradient>
			<polygon fill="url(#SVGID_1_)" points="1221.156,1525.02 1033.53,1525.02 583.648,584.309 771.275,584.309 			"/>
			
				<line fill="none" stroke="#FFFFFF" stroke-width="18" stroke-miterlimit="10" x1="1125.774" y1="1525.02" x2="675.893" y2="584.309"/>
		</g>
		<g>
			<polygon opacity="0.15" enable-background="new    " points="704.357,836.711 775.039,592.179 771.275,584.309 589.688,584.309 
				587.413,592.179 			"/>
		</g>
		<polygon opacity="0.15" enable-background="new    " points="1033.53,1525.02 1221.156,1525.02 984.018,1029.161 
			1016.142,1488.662 		"/>
	</g>
	<g>
		<g>
			<polygon fill="#10B2BF" points="1392.397,991.693 260.717,991.693 184.852,1133.163 1316.532,1133.163 			"/>
			<g>
				<g>
					<g>
						<g>
							<g>
								<g>
									<defs>
										<polygon id="SVGID_2_" points="1392.397,991.693 260.717,991.693 184.852,1133.163 1316.532,1133.163 										"/>
									</defs>
									<clipPath id="SVGID_3_">
										<use xlink:href="#SVGID_2_"  overflow="visible"/>
									</clipPath>
									
										<line clip-path="url(#SVGID_3_)" fill="none" stroke="#FFFFFF" stroke-width="18" stroke-miterlimit="10" x1="1494.693" y1="1062.428" x2="158.421" y2="1062.428"/>
								</g>
							</g>
						</g>
					</g>
				</g>
			</g>
		</g>
		<polygon opacity="0.15" enable-background="new    " points="306.039,1133.163 561.69,1133.163 615.702,991.693 374.474,991.693 
					"/>
		<polygon opacity="0.15" enable-background="new    " points="1014.808,1133.163 1233.225,1133.163 1250.518,991.693 
			993.332,991.693 		"/>
	</g>
	<g>
		<g>
			
				<linearGradient id="SVGID_4_" gradientUnits="userSpaceOnUse" x1="869.6473" y1="2355.0142" x2="560.5846" y2="1564.6984" gradientTransform="matrix(1 0 0 -1 -212.7 2913.4797)">
				<stop  offset="0" style="stop-color:#00C5DC"/>
				<stop  offset="1" style="stop-color:#005484"/>
			</linearGradient>
			<polygon fill="url(#SVGID_4_)" points="227.785,1337.787 415.412,1337.787 771.24,584.309 583.614,584.309 			"/>
			<g>
				<g>
					<g>
						<g>
							<g>
								<g>
									<defs>
										<polygon id="SVGID_5_" points="227.785,1337.787 415.412,1337.787 771.24,584.309 583.614,584.309 										"/>
									</defs>
									<clipPath id="SVGID_6_">
										<use xlink:href="#SVGID_5_"  overflow="visible"/>
									</clipPath>
									
										<line clip-path="url(#SVGID_6_)" fill="none" stroke="#FFFFFF" stroke-width="18" stroke-miterlimit="10" x1="303.438" y1="1370.287" x2="689.964" y2="551.808"/>
								</g>
							</g>
						</g>
					</g>
				</g>
			</g>
		</g>
		<g>
			<g>
				
					<linearGradient id="SVGID_7_" gradientUnits="userSpaceOnUse" x1="1340.043" y1="2024.709" x2="1340.0431" y2="1410.8564" gradientTransform="matrix(1 0 0 -1 -212.7 2913.4797)">
					<stop  offset="0" style="stop-color:#00C5DC"/>
					<stop  offset="1" style="stop-color:#005484"/>
				</linearGradient>
				<rect x="1033.53" y="833.56" fill="url(#SVGID_7_)" width="187.626" height="691.46"/>
				
					<line fill="none" stroke="#FFFFFF" stroke-width="18" stroke-miterlimit="10" x1="1127.343" y1="833.56" x2="1127.343" y2="1525.02"/>
			</g>
			<g>
				<g>
					
						<linearGradient id="SVGID_8_" gradientUnits="userSpaceOnUse" x1="1340.0431" y1="2426.4702" x2="1340.0431" y2="2137.6995" gradientTransform="matrix(1 0 0 -1 -212.7 2913.4797)">
						<stop  offset="0" style="stop-color:#00C5DC"/>
						<stop  offset="1" style="stop-color:#005484"/>
					</linearGradient>
					<circle fill="url(#SVGID_8_)" cx="1127.343" cy="622.826" r="150.862"/>
					<circle opacity="0.15" enable-background="new    " cx="1127.343" cy="622.826" r="106.646"/>
				</g>
				<circle fill="#D4D300" stroke="#D4D300" stroke-width="1.3627" stroke-miterlimit="10" cx="1127.343" cy="622.826" r="92.471"/>
			</g>
		</g>
	</g>
</g>
<g>
	<g>
		
			<linearGradient id="SVGID_9_" gradientUnits="userSpaceOnUse" x1="772.0673" y1="1560.4027" x2="772.0673" y2="1502.0233" gradientTransform="matrix(1 0 0 -1 -212.7 2913.4797)">
			<stop  offset="0" style="stop-color:#00C5DC"/>
			<stop  offset="1" style="stop-color:#005484"/>
		</linearGradient>
		<ellipse fill="url(#SVGID_9_)" cx="559.367" cy="1380.534" rx="32.123" ry="30.499"/>
		<ellipse opacity="0.15" enable-background="new    " cx="559.367" cy="1380.534" rx="22.708" ry="21.56"/>
	</g>
	
		<ellipse fill="#D4D300" stroke="#D4D300" stroke-width="0.2827" stroke-miterlimit="10" cx="559.367" cy="1380.534" rx="19.69" ry="18.695"/>
</g>
<rect x="219.869" y="1409.772" fill="none" width="872.107" height="145.34"/>
<g enable-background="new    ">
	<path fill="#005261" d="M231.271,1522.613v-5.255c2.919-1.557,5.59-3.373,8.015-5.449c1.102-10.12,1.653-31.398,1.653-63.837
		c0-22.122-0.193-36.784-0.578-43.986c-0.166-3.827-0.731-6.243-1.694-7.249c-0.965-1.005-5.055-1.865-12.27-2.579v-8.174
		c12.988,0.584,23.253,0.876,30.793,0.876l45.487-0.876c4.788,0,9.107,0.23,12.961,0.687l0.578,1.081
		c-1.212,7.14-2.095,16.639-2.644,28.496h-6.528c-0.275-9.472-0.592-14.532-0.95-15.181c-0.36-0.648-1.612-1.265-3.76-1.848
		c-4.574-1.168-11.569-1.752-20.989-1.752c-4.628,0-10.027,0.227-16.195,0.68c-0.717,20.046-1.13,36.006-1.24,47.877
		c5.894,0.455,11.43,0.681,16.609,0.681c7.657,0,12.256-0.291,13.8-0.876c0.936-0.389,1.597-1.329,1.983-2.822
		c0.33-1.168,0.716-5.255,1.156-12.262h7.107c-0.275,10.989-0.414,18.142-0.414,21.458l0.414,21.944h-7.107
		c-0.385-8.546-0.88-13.473-1.487-14.776c-0.33-0.782-1.074-1.337-2.231-1.663c-2.755-0.718-8.952-1.077-18.592-1.077
		c-3.03,0-6.583,0.228-10.659,0.681c-0.111,3.427-0.166,6.917-0.166,10.471c0,18.486,0.275,32.709,0.826,42.661l16.393,0.291
		c9.327,0,17.854-0.583,25.583-1.751c1.376-5.996,2.7-12.809,3.967-20.436h6.858c-1.267,11.552-2.012,22.646-2.23,33.281
		c-5.014,0.453-9.833,0.68-14.46,0.68c-3.031,0-9.006-0.114-17.93-0.34c-8.318-0.228-15.976-0.341-22.972-0.341
		C251.157,1521.931,241.462,1522.159,231.271,1522.613z"/>
</g>
<g enable-background="new    ">
	<path fill="#005261" d="M333.491,1522.409v-5.722c4.704-0.227,7.461-0.59,8.271-1.09c0.54-0.364,0.944-0.954,1.215-1.771
		c0.424-1.09,0.687-4.927,0.791-11.512c0.205-10.899,0.308-19.118,0.308-24.659l-0.115-28.814c0-7.63-0.212-12.034-0.633-13.215
		c-0.23-0.681-0.594-1.181-1.093-1.498c-0.767-0.545-3.683-1.067-8.745-1.567v-5.722c6.028,0.228,10.492,0.341,13.392,0.341
		c3.205,0,6.848-0.113,10.93-0.341c8.905,13.381,18.972,27.901,30.201,43.556c7.472,10.469,13.919,19.116,19.34,25.943v-27.04
		c0-10.243-0.097-19.073-0.289-26.495c-0.155-4.414-0.464-7.124-0.925-8.125c-0.231-0.546-0.657-0.933-1.273-1.161
		c-0.617-0.228-3.316-0.546-8.098-0.956v-5.722c4.194,0.228,8.37,0.341,12.525,0.341c5.696,0,10.851-0.113,15.469-0.341v5.722
		c-4.294,0.318-6.882,0.68-7.764,1.09c-0.499,0.228-0.901,0.545-1.207,0.953c-0.307,0.409-0.537,0.932-0.69,1.567
		c-0.269,1.09-0.427,4.588-0.474,10.49l-0.218,27.247l-0.115,27.451c0,7.357,0.134,14.714,0.405,22.071l-0.756,0.953
		c-4.688-0.999-8.001-1.658-9.938-1.975c-9.912-12.933-21.886-29.178-35.923-48.735c-7.097-9.892-12.824-18.218-17.181-24.98v26.476
		c0,7.214,0.096,15.903,0.289,26.067c0.116,7.486,0.385,11.797,0.81,12.932c0.153,0.499,0.443,0.884,0.867,1.157
		c0.732,0.499,3.508,0.952,8.329,1.362v5.722c-6.221-0.319-10.676-0.477-13.362-0.477
		C345.606,1521.931,340.826,1522.09,333.491,1522.409z"/>
	<path fill="#005261" d="M489.869,1488.894v-5.518c7.017,0.227,13.283,0.341,18.798,0.341c5.09,0,10.585-0.114,16.484-0.341v4.36
		c-1.697,0.637-3.317,1.385-4.858,2.249c-0.464,4.589-0.694,8.494-0.694,11.72c0,2.317,0.23,6.906,0.694,13.764
		c-7.635,3.24-14.027,5.434-19.175,6.581c-5.148,1.147-10.479,1.722-15.992,1.722c-14.886,0-26.54-4.553-34.966-13.659
		c-8.426-9.104-12.638-20.9-12.638-35.387c0-14.895,4.299-26.816,12.898-35.762c8.599-8.946,20.939-13.419,37.019-13.419
		c5.668,0,11.105,0.523,16.311,1.567c5.206,1.045,10.16,2.634,14.865,4.768l0.521,1.023c-1.119,5.767-1.947,12.942-2.487,21.526
		h-4.859c-0.038-4.315-0.289-8.129-0.752-11.445c-2.469-3.36-5.64-5.88-9.515-7.561c-3.875-1.68-8.454-2.52-13.738-2.52
		c-9.91,0-17.806,3.546-23.685,10.635c-5.881,7.091-8.821,16.793-8.821,29.11c0,13.136,3.095,23.715,9.284,31.736
		c6.188,8.022,13.814,12.033,22.876,12.033c4.82,0,9.948-1.384,15.386-4.155c0.307-3.497,0.463-6.812,0.463-9.945
		c0-6.993-0.347-10.854-1.042-11.58C501.552,1490.008,497.425,1489.395,489.869,1488.894z"/>
	<path fill="#005261" d="M538.836,1522.409v-5.722c5.289-0.317,8.281-0.839,8.971-1.567c0.69-0.726,1.113-2.52,1.266-5.381
		c0.308-5.994,0.463-17.165,0.463-33.515c0-6.266-0.077-15.349-0.231-27.246c-0.077-8.129-0.23-12.59-0.463-13.386
		c-0.231-0.794-0.636-1.374-1.214-1.737c-0.849-0.499-3.779-0.931-8.792-1.295v-5.722c7.943,0.318,14.016,0.477,18.219,0.477
		c7.25,0,13.805-0.159,19.666-0.477v5.722c-5.275,0.364-8.251,0.852-8.929,1.464c-0.678,0.613-1.116,2.034-1.309,4.258
		c-0.309,4.359-0.463,13.192-0.463,26.498c0,17.711,0.058,30.052,0.174,37.022c0.116,6.971,0.463,11.114,1.042,12.431
		c0.23,0.591,0.722,1.055,1.475,1.396c0.752,0.341,3.421,0.693,8.01,1.056v5.722l-6.825-0.205
		c-4.319-0.181-8.175-0.273-11.569-0.273L538.836,1522.409z"/>
	<path fill="#005261" d="M588.67,1522.409v-5.722c4.704-0.227,7.461-0.59,8.271-1.09c0.54-0.364,0.944-0.954,1.215-1.771
		c0.424-1.09,0.687-4.927,0.791-11.512c0.205-10.899,0.308-19.118,0.308-24.659l-0.115-28.814c0-7.63-0.212-12.034-0.633-13.215
		c-0.23-0.681-0.594-1.181-1.093-1.498c-0.768-0.545-3.683-1.067-8.745-1.567v-5.722c6.028,0.228,10.492,0.341,13.392,0.341
		c3.205,0,6.848-0.113,10.93-0.341c8.905,13.381,18.972,27.901,30.201,43.556c7.472,10.469,13.919,19.116,19.34,25.943v-27.04
		c0-10.243-0.097-19.073-0.289-26.495c-0.155-4.414-0.464-7.124-0.925-8.125c-0.231-0.546-0.657-0.933-1.273-1.161
		c-0.617-0.228-3.316-0.546-8.098-0.956v-5.722c4.194,0.228,8.37,0.341,12.525,0.341c5.696,0,10.851-0.113,15.469-0.341v5.722
		c-4.294,0.318-6.882,0.68-7.764,1.09c-0.499,0.228-0.901,0.545-1.207,0.953c-0.307,0.409-0.537,0.932-0.69,1.567
		c-0.269,1.09-0.427,4.588-0.474,10.49l-0.218,27.247l-0.115,27.451c0,7.357,0.134,14.714,0.405,22.071l-0.756,0.953
		c-4.688-0.999-8.001-1.658-9.938-1.975c-9.912-12.933-21.886-29.178-35.923-48.735c-7.097-9.892-12.824-18.218-17.181-24.98v26.476
		c0,7.214,0.096,15.903,0.289,26.067c0.116,7.486,0.385,11.797,0.81,12.932c0.153,0.499,0.443,0.884,0.867,1.157
		c0.732,0.499,3.508,0.952,8.329,1.362v5.722c-6.221-0.319-10.676-0.477-13.362-0.477
		C600.786,1521.931,596.005,1522.09,588.67,1522.409z"/>
	<path fill="#005261" d="M695.248,1522.409v-3.679c2.043-1.09,3.913-2.36,5.611-3.815c0.77-7.083,1.157-21.979,1.157-44.686
		c0-15.486-0.136-25.749-0.405-30.79c-0.116-2.679-0.511-4.37-1.186-5.075c-0.674-0.704-3.538-1.305-8.59-1.805v-5.722
		c9.092,0.409,16.278,0.613,21.556,0.613l31.841-0.613c3.351,0,6.375,0.161,9.072,0.482l0.405,0.757
		c-0.848,4.999-1.465,11.647-1.851,19.947h-4.57c-0.193-6.629-0.415-10.172-0.666-10.626c-0.251-0.453-1.127-0.885-2.632-1.295
		c-3.201-0.817-8.098-1.226-14.692-1.226c-3.239,0-7.018,0.16-11.336,0.477c-0.502,14.032-0.791,25.204-0.868,33.515
		c4.126,0.318,8.001,0.476,11.625,0.476c5.36,0,8.58-0.204,9.659-0.612c0.656-0.273,1.118-0.931,1.388-1.976
		c0.231-0.817,0.501-3.678,0.81-8.583h4.975c-0.193,7.692-0.29,12.699-0.29,15.02l0.29,15.361h-4.975
		c-0.27-5.981-0.618-9.431-1.042-10.344c-0.23-0.546-0.752-0.935-1.561-1.164c-1.929-0.502-6.268-0.754-13.013-0.754
		c-2.121,0-4.608,0.16-7.461,0.477c-0.077,2.398-0.116,4.841-0.116,7.33c0,12.94,0.192,22.896,0.578,29.863l11.475,0.205
		c6.528,0,12.498-0.409,17.909-1.226c0.963-4.198,1.889-8.966,2.776-14.305h4.8c-0.887,8.087-1.409,15.852-1.562,23.297
		c-3.509,0.317-6.883,0.477-10.122,0.477c-2.121,0-6.306-0.08-12.552-0.239c-5.823-0.159-11.183-0.238-16.08-0.238
		C709.167,1521.931,702.38,1522.09,695.248,1522.409z"/>
	<path fill="#005261" d="M771.516,1522.409v-3.679c2.043-1.09,3.913-2.36,5.611-3.815c0.77-7.083,1.157-21.979,1.157-44.686
		c0-15.486-0.136-25.749-0.405-30.79c-0.116-2.679-0.511-4.37-1.186-5.075c-0.674-0.704-3.538-1.305-8.59-1.805v-5.722
		c9.092,0.409,16.277,0.613,21.555,0.613l31.841-0.613c3.351,0,6.375,0.161,9.072,0.482l0.405,0.757
		c-0.848,4.999-1.465,11.647-1.851,19.947h-4.57c-0.193-6.629-0.415-10.172-0.666-10.626c-0.251-0.453-1.127-0.885-2.632-1.295
		c-3.201-0.817-8.098-1.226-14.692-1.226c-3.239,0-7.018,0.16-11.336,0.477c-0.502,14.032-0.791,25.204-0.867,33.515
		c4.126,0.318,8.001,0.476,11.625,0.476c5.36,0,8.58-0.204,9.659-0.612c0.656-0.273,1.118-0.931,1.388-1.976
		c0.231-0.817,0.501-3.678,0.81-8.583h4.975c-0.193,7.692-0.29,12.699-0.29,15.02l0.29,15.361h-4.975
		c-0.27-5.981-0.618-9.431-1.042-10.344c-0.23-0.546-0.752-0.935-1.562-1.164c-1.929-0.502-6.268-0.754-13.013-0.754
		c-2.121,0-4.608,0.16-7.461,0.477c-0.077,2.398-0.116,4.841-0.116,7.33c0,12.94,0.192,22.896,0.578,29.863l11.475,0.205
		c6.528,0,12.498-0.409,17.909-1.226c0.963-4.198,1.889-8.966,2.776-14.305h4.8c-0.887,8.087-1.409,15.852-1.562,23.297
		c-3.509,0.317-6.883,0.477-10.122,0.477c-2.121,0-6.306-0.08-12.552-0.239c-5.823-0.159-11.183-0.238-16.08-0.238
		C785.435,1521.931,778.648,1522.09,771.516,1522.409z"/>
</g>
<g enable-background="new    ">
	<path fill="#005261" d="M848.594,1522.613v-8.173c6.39-0.648,10.052-1.265,10.99-1.849c0.605-0.389,1.045-1.005,1.322-1.848
		c0.55-1.557,0.936-6.812,1.157-15.764c0.274-13.883,0.414-24.815,0.414-32.794c0-10.768-0.111-24.457-0.33-41.066
		c-0.222-12.39-0.744-19.981-1.571-22.771c-0.221-0.842-0.661-1.492-1.322-1.946c-0.881-0.648-4.435-1.362-10.659-2.141v-8.174
		c11.403,0.454,18.758,0.681,22.062,0.681l41.398-0.681c8.978,0,15.52,1.021,19.625,3.061c4.103,2.04,7.354,5.312,9.75,9.815
		c2.396,4.503,3.594,9.798,3.594,15.886c0,7.773-1.914,14.591-5.742,20.454c-3.829,5.863-10.481,11.06-19.954,15.594l17.6,31.236
		l13.716,23.94c2.589,3.892,4.516,6.244,5.784,7.054c1.266,0.813,3.332,1.25,6.197,1.314v7.493l-4.876,0.097
		c-13.993,0.129-23,0.324-27.02,0.583c-4.792-9.016-11.954-22.089-21.484-39.217l-17.022-30.459c0.496-1.103,0.91-2.269,1.24-3.503
		c2.203,0.326,3.828,0.486,4.876,0.486c5.124,0,10.163-2.437,15.121-7.311c4.958-4.875,7.437-11.828,7.437-20.863
		c0-7.864-1.961-13.973-5.881-18.328c-3.921-4.355-9.801-6.532-17.644-6.532c-2.485,0-5.854,0.228-10.105,0.681l-0.543,28.731
		l-0.697,36.426c0,8.245,0.273,18.796,0.822,31.652c0.437,9.675,0.876,15.098,1.314,16.266c0.328,0.845,0.931,1.526,1.808,2.045
		c1.151,0.78,4.878,1.363,11.177,1.753v8.173c-9.901-0.454-18.673-0.68-26.318-0.68
		C866.689,1521.931,857.944,1522.159,848.594,1522.613z"/>
</g>
</svg>
