<?xml version="1.0" encoding="utf-8"?>
<!-- Generator: Adobe Illustrator 17.0.0, SVG Export Plug-In . SVG Version: 6.00 Build 0)  -->
<!DOCTYPE svg PUBLIC "-//W3C//DTD SVG 1.1//EN" "http://www.w3.org/Graphics/SVG/1.1/DTD/svg11.dtd">
<svg version="1.1" id="Layer_1" xmlns="http://www.w3.org/2000/svg" xmlns:xlink="http://www.w3.org/1999/xlink" x="0px" y="0px"
	 width="1425.286px" height="1586.96px" viewBox="0 0 1425.286 1586.96" enable-background="new 0 0 1425.286 1586.96"
	 xml:space="preserve">
<g>
	<g>
		<g>
			
				<linearGradient id="SVGID_1_" gradientUnits="userSpaceOnUse" x1="1178.9103" y1="701.2466" x2="896.3386" y2="1482.7332" gradientTransform="matrix(1 0 0 -1 -127.62 2167.6799)">
				<stop  offset="0" style="stop-color:#00C5DC"/>
				<stop  offset="1" style="stop-color:#005484"/>
			</linearGradient>
			<polygon fill="url(#SVGID_1_)" points="1221.156,1525.02 1033.53,1525.02 583.648,584.309 771.275,584.309 			"/>
			
				<line fill="none" stroke="#FFFFFF" stroke-width="18" stroke-miterlimit="10" x1="1125.774" y1="1525.02" x2="675.893" y2="584.309"/>
		</g>
		<g>
			<polygon opacity="0.15" enable-background="new    " points="704.357,836.711 775.039,592.179 771.275,584.309 589.688,584.309 
				587.413,592.179 			"/>
		</g>
		<polygon opacity="0.15" enable-background="new    " points="1033.53,1525.02 1221.156,1525.02 984.018,1029.161 
			1016.142,1488.662 		"/>
	</g>
	<g>
		<g>
			<polygon fill="#10B2BF" points="1392.397,991.693 260.717,991.693 184.852,1133.163 1316.532,1133.163 			"/>
			<g>
				<g>
					<g>
						<g>
							<defs>
								<polygon id="SVGID_2_" points="1392.397,991.693 260.717,991.693 184.852,1133.163 1316.532,1133.163 								"/>
							</defs>
							<clipPath id="SVGID_3_">
								<use xlink:href="#SVGID_2_"  overflow="visible"/>
							</clipPath>
							
								<line clip-path="url(#SVGID_3_)" fill="none" stroke="#FFFFFF" stroke-width="18" stroke-miterlimit="10" x1="1494.693" y1="1062.428" x2="158.421" y2="1062.428"/>
						</g>
					</g>
				</g>
			</g>
		</g>
		<polygon opacity="0.15" enable-background="new    " points="306.039,1133.163 561.69,1133.163 615.702,991.693 374.474,991.693 
					"/>
		<polygon opacity="0.15" enable-background="new    " points="1014.808,1133.163 1233.225,1133.163 1250.518,991.693 
			993.332,991.693 		"/>
	</g>
	<g>
		<g>
			
				<linearGradient id="SVGID_4_" gradientUnits="userSpaceOnUse" x1="784.5673" y1="1609.2144" x2="475.5046" y2="818.8984" gradientTransform="matrix(1 0 0 -1 -127.62 2167.6799)">
				<stop  offset="0" style="stop-color:#00C5DC"/>
				<stop  offset="1" style="stop-color:#005484"/>
			</linearGradient>
			<polygon fill="url(#SVGID_4_)" points="227.785,1337.787 415.412,1337.787 771.24,584.309 583.614,584.309 			"/>
			<g>
				<g>
					<g>
						<g>
							<defs>
								<polygon id="SVGID_5_" points="227.785,1337.787 415.412,1337.787 771.24,584.309 583.614,584.309 								"/>
							</defs>
							<clipPath id="SVGID_6_">
								<use xlink:href="#SVGID_5_"  overflow="visible"/>
							</clipPath>
							
								<line clip-path="url(#SVGID_6_)" fill="none" stroke="#FFFFFF" stroke-width="18" stroke-miterlimit="10" x1="303.438" y1="1370.287" x2="689.964" y2="551.808"/>
						</g>
					</g>
				</g>
			</g>
		</g>
		<g>
			<g>
				
					<linearGradient id="SVGID_7_" gradientUnits="userSpaceOnUse" x1="1254.963" y1="1278.9091" x2="1254.963" y2="665.0565" gradientTransform="matrix(1 0 0 -1 -127.62 2167.6799)">
					<stop  offset="0" style="stop-color:#00C5DC"/>
					<stop  offset="1" style="stop-color:#005484"/>
				</linearGradient>
				<rect x="1033.53" y="833.56" fill="url(#SVGID_7_)" width="187.626" height="691.46"/>
				
					<line fill="none" stroke="#FFFFFF" stroke-width="18" stroke-miterlimit="10" x1="1127.343" y1="833.56" x2="1127.343" y2="1525.02"/>
			</g>
			<g>
				<g>
					
						<linearGradient id="SVGID_8_" gradientUnits="userSpaceOnUse" x1="1254.963" y1="1680.6704" x2="1254.963" y2="1391.8997" gradientTransform="matrix(1 0 0 -1 -127.62 2167.6799)">
						<stop  offset="0" style="stop-color:#00C5DC"/>
						<stop  offset="1" style="stop-color:#005484"/>
					</linearGradient>
					<circle fill="url(#SVGID_8_)" cx="1127.343" cy="622.826" r="150.862"/>
					<circle opacity="0.15" enable-background="new    " cx="1127.343" cy="622.826" r="106.646"/>
				</g>
				<circle fill="#D4D300" stroke="#D4D300" stroke-width="1.3627" stroke-miterlimit="10" cx="1127.343" cy="622.826" r="92.471"/>
			</g>
		</g>
	</g>
</g>
<g>
	<g>
		
			<linearGradient id="SVGID_9_" gradientUnits="userSpaceOnUse" x1="693.837" y1="829.6514" x2="693.837" y2="766.9236" gradientTransform="matrix(1 0 0 -1 -127.62 2167.6799)">
			<stop  offset="0" style="stop-color:#00C5DC"/>
			<stop  offset="1" style="stop-color:#005484"/>
		</linearGradient>
		<circle fill="url(#SVGID_9_)" cx="566.217" cy="1367.531" r="32.771"/>
		<circle opacity="0.15" enable-background="new    " cx="566.217" cy="1367.531" r="23.166"/>
	</g>
	<circle fill="#D4D300" stroke="#D4D300" stroke-width="0.296" stroke-miterlimit="10" cx="566.217" cy="1367.531" r="20.087"/>
</g>
<rect x="219.869" y="1398.946" fill="none" width="889.703" height="156.166"/>
<text transform="matrix(1.04 0 0 1.29 219.8691 1519.4612)" fill="#005261" font-family="'BookAntiqua-Bold'" font-size="166" letter-spacing="5.769">E</text>
<text transform="matrix(0.728 0 0 0.903 331.7124 1519.4612)" fill="#005261" font-family="'BookAntiqua-Bold'" font-size="166" letter-spacing="5.495">nginee</text>
<text transform="matrix(1.04 0 0 1.29 855.2089 1519.4612)" fill="#005261" font-family="'BookAntiqua-Bold'" font-size="166" letter-spacing="5.769">r</text>
</svg>
