<?xml version="1.0" encoding="utf-8"?>
<!-- Generator: Adobe Illustrator 17.0.0, SVG Export Plug-In . SVG Version: 6.00 Build 0)  -->
<!DOCTYPE svg PUBLIC "-//W3C//DTD SVG 1.1//EN" "http://www.w3.org/Graphics/SVG/1.1/DTD/svg11.dtd">
<svg version="1.1" id="Layer_1" xmlns="http://www.w3.org/2000/svg" xmlns:xlink="http://www.w3.org/1999/xlink" x="0px" y="0px"
	 width="1425.286px" height="1586.96px" viewBox="0 0 1425.286 1586.96" enable-background="new 0 0 1425.286 1586.96"
	 xml:space="preserve">
<g>
	<g>
		<g>
			
				<linearGradient id="SVGID_1_" gradientUnits="userSpaceOnUse" x1="1221.4503" y1="-25.1666" x2="938.8787" y2="-806.6531" gradientTransform="matrix(1 0 0 1 -170.16 1491.5999)">
				<stop  offset="0" style="stop-color:#00C5DC"/>
				<stop  offset="1" style="stop-color:#005484"/>
			</linearGradient>
			<polygon fill="url(#SVGID_1_)" points="1221.156,1525.02 1033.53,1525.02 583.648,584.309 771.275,584.309 			"/>
			
				<line fill="none" stroke="#FFFFFF" stroke-width="18" stroke-miterlimit="10" x1="1125.774" y1="1525.02" x2="675.893" y2="584.309"/>
		</g>
		<g>
			<polygon opacity="0.15" enable-background="new    " points="704.357,836.711 775.039,592.179 771.275,584.309 589.688,584.309 
				587.413,592.179 			"/>
		</g>
		<polygon opacity="0.15" enable-background="new    " points="1033.53,1525.02 1221.156,1525.02 984.018,1029.161 
			1016.142,1488.662 		"/>
	</g>
	<g>
		<g>
			<polygon fill="#10B2BF" points="1392.397,991.693 260.717,991.693 184.852,1133.163 1316.532,1133.163 			"/>
			<g>
				<g>
					<g>
						<g>
							<g>
								<defs>
									<polygon id="SVGID_2_" points="1392.397,991.693 260.717,991.693 184.852,1133.163 1316.532,1133.163 									"/>
								</defs>
								<clipPath id="SVGID_3_">
									<use xlink:href="#SVGID_2_"  overflow="visible"/>
								</clipPath>
								
									<line clip-path="url(#SVGID_3_)" fill="none" stroke="#FFFFFF" stroke-width="18" stroke-miterlimit="10" x1="1494.693" y1="1062.428" x2="158.421" y2="1062.428"/>
							</g>
						</g>
					</g>
				</g>
			</g>
		</g>
		<polygon opacity="0.15" enable-background="new    " points="306.039,1133.163 561.69,1133.163 615.702,991.693 374.474,991.693 
					"/>
		<polygon opacity="0.15" enable-background="new    " points="1014.808,1133.163 1233.225,1133.163 1250.518,991.693 
			993.332,991.693 		"/>
	</g>
	<g>
		<g>
			
				<linearGradient id="SVGID_4_" gradientUnits="userSpaceOnUse" x1="827.1073" y1="-933.1343" x2="518.0446" y2="-142.8184" gradientTransform="matrix(1 0 0 1 -170.16 1491.5999)">
				<stop  offset="0" style="stop-color:#00C5DC"/>
				<stop  offset="1" style="stop-color:#005484"/>
			</linearGradient>
			<polygon fill="url(#SVGID_4_)" points="227.785,1337.787 415.412,1337.787 771.24,584.309 583.614,584.309 			"/>
			<g>
				<g>
					<g>
						<g>
							<g>
								<defs>
									<polygon id="SVGID_5_" points="227.785,1337.787 415.412,1337.787 771.24,584.309 583.614,584.309 									"/>
								</defs>
								<clipPath id="SVGID_6_">
									<use xlink:href="#SVGID_5_"  overflow="visible"/>
								</clipPath>
								
									<line clip-path="url(#SVGID_6_)" fill="none" stroke="#FFFFFF" stroke-width="18" stroke-miterlimit="10" x1="303.438" y1="1370.287" x2="689.964" y2="551.808"/>
							</g>
						</g>
					</g>
				</g>
			</g>
		</g>
		<g>
			<g>
				
					<linearGradient id="SVGID_7_" gradientUnits="userSpaceOnUse" x1="1297.5031" y1="-602.829" x2="1297.5031" y2="11.0235" gradientTransform="matrix(1 0 0 1 -170.16 1491.5999)">
					<stop  offset="0" style="stop-color:#00C5DC"/>
					<stop  offset="1" style="stop-color:#005484"/>
				</linearGradient>
				<rect x="1033.53" y="833.56" fill="url(#SVGID_7_)" width="187.626" height="691.46"/>
				
					<line fill="none" stroke="#FFFFFF" stroke-width="18" stroke-miterlimit="10" x1="1127.343" y1="833.56" x2="1127.343" y2="1525.02"/>
			</g>
			<g>
				<g>
					
						<linearGradient id="SVGID_8_" gradientUnits="userSpaceOnUse" x1="1297.5031" y1="-1004.5904" x2="1297.5031" y2="-715.8196" gradientTransform="matrix(1 0 0 1 -170.16 1491.5999)">
						<stop  offset="0" style="stop-color:#00C5DC"/>
						<stop  offset="1" style="stop-color:#005484"/>
					</linearGradient>
					<circle fill="url(#SVGID_8_)" cx="1127.343" cy="622.826" r="150.862"/>
					<circle opacity="0.15" enable-background="new    " cx="1127.343" cy="622.826" r="106.646"/>
				</g>
				<circle fill="#D4D300" stroke="#D4D300" stroke-width="1.3627" stroke-miterlimit="10" cx="1127.343" cy="622.826" r="92.471"/>
			</g>
		</g>
	</g>
</g>
<g>
	<g>
		
			<linearGradient id="SVGID_9_" gradientUnits="userSpaceOnUse" x1="736.377" y1="-153.5714" x2="736.377" y2="-90.8436" gradientTransform="matrix(1 0 0 1 -170.16 1491.5999)">
			<stop  offset="0" style="stop-color:#00C5DC"/>
			<stop  offset="1" style="stop-color:#005484"/>
		</linearGradient>
		<circle fill="url(#SVGID_9_)" cx="566.217" cy="1367.531" r="32.771"/>
		<circle opacity="0.15" enable-background="new    " cx="566.217" cy="1367.531" r="23.166"/>
	</g>
	<circle fill="#D4D300" stroke="#D4D300" stroke-width="0.296" stroke-miterlimit="10" cx="566.217" cy="1367.531" r="20.087"/>
</g>
<rect x="219.869" y="1398.946" fill="none" width="889.703" height="156.166"/>
<g enable-background="new    ">
	<path fill="#005261" d="M231.501,1520.192v-5.646c2.978-1.673,5.703-3.624,8.177-5.855c1.124-10.874,1.686-33.737,1.686-68.592
		c0-23.77-0.197-39.524-0.59-47.262c-0.169-4.112-0.746-6.708-1.728-7.789c-0.984-1.08-5.157-2.004-12.518-2.771v-8.783
		c13.25,0.628,23.722,0.941,31.414,0.941l46.405-0.941c4.885,0,9.291,0.247,13.223,0.738l0.59,1.162
		c-1.236,7.672-2.137,17.878-2.697,30.618h-6.66c-0.281-10.177-0.604-15.614-0.969-16.312c-0.367-0.696-1.645-1.359-3.836-1.986
		c-4.666-1.255-11.802-1.882-21.412-1.882c-4.721,0-10.229,0.244-16.522,0.731c-0.731,21.539-1.153,38.688-1.265,51.443
		c6.013,0.489,11.661,0.732,16.944,0.732c7.811,0,12.503-0.313,14.078-0.941c0.955-0.418,1.629-1.428,2.023-3.032
		c0.337-1.255,0.73-5.646,1.179-13.175h7.25c-0.281,11.808-0.422,19.493-0.422,23.056l0.422,23.579h-7.25
		c-0.393-9.182-0.898-14.476-1.517-15.877c-0.337-0.84-1.096-1.437-2.276-1.787c-2.811-0.771-9.133-1.157-18.967-1.157
		c-3.091,0-6.716,0.245-10.874,0.732c-0.113,3.682-0.169,7.432-0.169,11.251c0,19.863,0.281,35.145,0.843,45.839l16.724,0.313
		c9.515,0,18.214-0.627,26.099-1.882c1.404-6.443,2.754-13.763,4.047-21.958h6.996c-1.293,12.413-2.053,24.333-2.275,35.76
		c-5.115,0.487-10.031,0.731-14.752,0.731c-3.092,0-9.188-0.122-18.292-0.365c-8.486-0.245-16.298-0.366-23.435-0.366
		C251.788,1519.46,241.898,1519.704,231.501,1520.192z"/>
</g>
<g enable-background="new    ">
	<path fill="#005261" d="M335.783,1519.973v-6.148c4.799-0.244,7.612-0.634,8.438-1.171c0.551-0.391,0.963-1.025,1.239-1.903
		c0.433-1.171,0.701-5.294,0.807-12.369c0.209-11.711,0.314-20.542,0.314-26.496l-0.117-30.96c0-8.198-0.216-12.93-0.646-14.199
		c-0.235-0.732-0.606-1.269-1.115-1.61c-0.783-0.586-3.757-1.146-8.921-1.684v-6.148c6.15,0.245,10.704,0.366,13.662,0.366
		c3.27,0,6.986-0.121,11.151-0.366c9.085,14.378,19.355,29.979,30.81,46.8c7.623,11.249,14.2,20.54,19.73,27.875v-29.054
		c0-11.006-0.099-20.494-0.295-28.468c-0.158-4.743-0.473-7.654-0.944-8.73c-0.236-0.587-0.67-1.003-1.299-1.247
		c-0.629-0.245-3.383-0.587-8.261-1.027v-6.148c4.279,0.245,8.539,0.366,12.778,0.366c5.811,0,11.07-0.121,15.781-0.366v6.148
		c-4.381,0.342-7.021,0.731-7.921,1.171c-0.509,0.245-0.919,0.586-1.231,1.024c-0.313,0.439-0.548,1.001-0.704,1.684
		c-0.274,1.171-0.436,4.93-0.484,11.271l-0.222,29.277l-0.117,29.496c0,7.905,0.137,15.81,0.413,23.715l-0.771,1.024
		c-4.783-1.073-8.162-1.781-10.138-2.122c-10.112-13.896-22.328-31.351-36.648-52.365c-7.24-10.629-13.083-19.575-17.528-26.841
		v28.448c0,7.751,0.098,17.088,0.295,28.009c0.118,8.044,0.393,12.676,0.826,13.895c0.156,0.536,0.452,0.95,0.885,1.243
		c0.747,0.536,3.579,1.023,8.497,1.463v6.148c-6.347-0.343-10.891-0.513-13.632-0.513
		C348.143,1519.46,343.266,1519.63,335.783,1519.973z"/>
	<path fill="#005261" d="M495.316,1483.962v-5.929c7.159,0.244,13.551,0.366,19.177,0.366c5.193,0,10.799-0.122,16.817-0.366v4.685
		c-1.731,0.684-3.384,1.488-4.956,2.416c-0.473,4.931-0.708,9.127-0.708,12.593c0,2.489,0.235,7.42,0.708,14.789
		c-7.789,3.481-14.31,5.839-19.562,7.071s-10.69,1.85-16.315,1.85c-15.186,0-27.075-4.892-35.671-14.676
		c-8.596-9.782-12.893-22.457-12.893-38.023c0-16.004,4.386-28.813,13.158-38.426c8.772-9.612,21.361-14.419,37.766-14.419
		c5.782,0,11.329,0.562,16.64,1.684c5.311,1.123,10.365,2.83,15.165,5.123l0.531,1.099c-1.142,6.197-1.986,13.906-2.537,23.129
		h-4.957c-0.039-4.636-0.295-8.734-0.767-12.297c-2.519-3.61-5.754-6.318-9.707-8.124c-3.953-1.805-8.625-2.708-14.015-2.708
		c-10.11,0-18.165,3.81-24.163,11.427c-6,7.619-8.999,18.044-8.999,31.278c0,14.115,3.157,25.481,9.471,34.1
		c6.313,8.62,14.093,12.929,23.338,12.929c4.917,0,10.149-1.487,15.696-4.465c0.313-3.757,0.472-7.319,0.472-10.686
		c0-7.514-0.354-11.662-1.063-12.443C507.235,1485.159,503.025,1484.5,495.316,1483.962z"/>
	<path fill="#005261" d="M545.271,1519.973v-6.148c5.396-0.341,8.448-0.902,9.152-1.684c0.704-0.78,1.135-2.708,1.292-5.782
		c0.314-6.44,0.472-18.444,0.472-36.011c0-6.733-0.079-16.492-0.236-29.276c-0.079-8.734-0.235-13.528-0.472-14.383
		c-0.236-0.853-0.649-1.476-1.239-1.866c-0.866-0.536-3.855-1-8.969-1.391v-6.148c8.103,0.342,14.299,0.513,18.587,0.513
		c7.396,0,14.083-0.171,20.063-0.513v6.148c-5.381,0.391-8.417,0.915-9.109,1.573c-0.692,0.659-1.138,2.185-1.335,4.575
		c-0.315,4.684-0.472,14.175-0.472,28.472c0,19.03,0.059,32.29,0.177,39.78s0.472,11.942,1.063,13.357
		c0.235,0.635,0.737,1.134,1.505,1.5c0.767,0.366,3.49,0.745,8.172,1.135v6.148l-6.963-0.22c-4.406-0.195-8.34-0.293-11.802-0.293
		L545.271,1519.973z"/>
	<path fill="#005261" d="M596.111,1519.973v-6.148c4.799-0.244,7.612-0.634,8.438-1.171c0.551-0.391,0.963-1.025,1.239-1.903
		c0.433-1.171,0.701-5.294,0.807-12.369c0.209-11.711,0.314-20.542,0.314-26.496l-0.117-30.96c0-8.198-0.216-12.93-0.646-14.199
		c-0.235-0.732-0.606-1.269-1.115-1.61c-0.783-0.586-3.757-1.146-8.921-1.684v-6.148c6.15,0.245,10.704,0.366,13.662,0.366
		c3.27,0,6.986-0.121,11.151-0.366c9.085,14.378,19.355,29.979,30.81,46.8c7.623,11.249,14.2,20.54,19.73,27.875v-29.054
		c0-11.006-0.099-20.494-0.295-28.468c-0.158-4.743-0.473-7.654-0.944-8.73c-0.236-0.587-0.67-1.003-1.299-1.247
		c-0.629-0.245-3.383-0.587-8.261-1.027v-6.148c4.279,0.245,8.539,0.366,12.778,0.366c5.811,0,11.07-0.121,15.781-0.366v6.148
		c-4.381,0.342-7.021,0.731-7.921,1.171c-0.509,0.245-0.919,0.586-1.231,1.024c-0.313,0.439-0.548,1.001-0.704,1.684
		c-0.274,1.171-0.436,4.93-0.484,11.271l-0.222,29.277l-0.117,29.496c0,7.905,0.137,15.81,0.413,23.715l-0.771,1.024
		c-4.783-1.073-8.162-1.781-10.138-2.122c-10.112-13.896-22.328-31.351-36.648-52.365c-7.24-10.629-13.083-19.575-17.528-26.841
		v28.448c0,7.751,0.098,17.088,0.295,28.009c0.118,8.044,0.393,12.676,0.826,13.895c0.156,0.536,0.452,0.95,0.885,1.243
		c0.747,0.536,3.579,1.023,8.497,1.463v6.148c-6.347-0.343-10.891-0.513-13.632-0.513
		C608.471,1519.46,603.594,1519.63,596.111,1519.973z"/>
	<path fill="#005261" d="M704.839,1519.973v-3.953c2.084-1.171,3.992-2.536,5.724-4.099c0.786-7.611,1.18-23.616,1.18-48.014
		c0-16.639-0.139-27.667-0.413-33.083c-0.118-2.879-0.521-4.696-1.21-5.453c-0.688-0.756-3.609-1.402-8.763-1.939v-6.148
		c9.275,0.439,16.606,0.659,21.991,0.659l32.483-0.659c3.419,0,6.504,0.173,9.255,0.518l0.413,0.813
		c-0.865,5.371-1.495,12.515-1.888,21.433h-4.662c-0.197-7.123-0.423-10.93-0.679-11.418c-0.256-0.487-1.15-0.951-2.685-1.391
		c-3.266-0.878-8.261-1.317-14.988-1.317c-3.304,0-7.16,0.172-11.565,0.513c-0.512,15.077-0.807,27.081-0.885,36.011
		c4.209,0.342,8.162,0.512,11.86,0.512c5.468,0,8.753-0.219,9.854-0.658c0.669-0.293,1.141-1,1.416-2.123
		c0.236-0.878,0.511-3.952,0.826-9.222h5.075c-0.197,8.265-0.296,13.645-0.296,16.139l0.296,16.505h-5.075
		c-0.275-6.427-0.63-10.133-1.063-11.114c-0.235-0.587-0.767-1.005-1.593-1.251c-1.968-0.539-6.394-0.81-13.276-0.81
		c-2.164,0-4.701,0.172-7.612,0.513c-0.079,2.577-0.118,5.202-0.118,7.876c0,13.904,0.196,24.601,0.59,32.087l11.707,0.22
		c6.66,0,12.75-0.439,18.27-1.317c0.982-4.511,1.927-9.634,2.832-15.371h4.897c-0.905,8.689-1.437,17.033-1.593,25.032
		c-3.58,0.341-7.022,0.513-10.326,0.513c-2.164,0-6.433-0.086-12.805-0.257c-5.94-0.171-11.409-0.256-16.404-0.256
		C719.039,1519.46,712.115,1519.63,704.839,1519.973z"/>
	<path fill="#005261" d="M782.646,1519.973v-3.953c2.084-1.171,3.992-2.536,5.724-4.099c0.786-7.611,1.18-23.616,1.18-48.014
		c0-16.639-0.139-27.667-0.413-33.083c-0.118-2.879-0.521-4.696-1.21-5.453c-0.688-0.756-3.609-1.402-8.763-1.939v-6.148
		c9.275,0.439,16.605,0.659,21.99,0.659l32.483-0.659c3.419,0,6.504,0.173,9.255,0.518l0.413,0.813
		c-0.865,5.371-1.495,12.515-1.888,21.433h-4.662c-0.197-7.123-0.423-10.93-0.679-11.418c-0.256-0.487-1.15-0.951-2.685-1.391
		c-3.266-0.878-8.261-1.317-14.988-1.317c-3.304,0-7.16,0.172-11.565,0.513c-0.512,15.077-0.807,27.081-0.885,36.011
		c4.209,0.342,8.162,0.512,11.86,0.512c5.468,0,8.753-0.219,9.854-0.658c0.669-0.293,1.141-1,1.416-2.123
		c0.236-0.878,0.511-3.952,0.826-9.222h5.075c-0.197,8.265-0.296,13.645-0.296,16.139l0.296,16.505h-5.075
		c-0.275-6.427-0.63-10.133-1.063-11.114c-0.235-0.587-0.767-1.005-1.593-1.251c-1.968-0.539-6.394-0.81-13.276-0.81
		c-2.164,0-4.701,0.172-7.612,0.513c-0.079,2.577-0.118,5.202-0.118,7.876c0,13.904,0.196,24.601,0.59,32.087l11.707,0.22
		c6.66,0,12.75-0.439,18.27-1.317c0.982-4.511,1.927-9.634,2.832-15.371h4.897c-0.905,8.689-1.437,17.033-1.593,25.032
		c-3.58,0.341-7.022,0.513-10.326,0.513c-2.164,0-6.433-0.086-12.805-0.257c-5.94-0.171-11.409-0.256-16.404-0.256
		C796.846,1519.46,789.922,1519.63,782.646,1519.973z"/>
</g>
<g enable-background="new    ">
	<path fill="#005261" d="M861.279,1520.192v-8.782c6.519-0.696,10.255-1.359,11.212-1.987c0.617-0.418,1.066-1.08,1.349-1.986
		c0.561-1.673,0.955-7.319,1.18-16.938c0.28-14.917,0.422-26.663,0.422-35.237c0-11.57-0.113-26.279-0.337-44.125
		c-0.226-13.313-0.759-21.469-1.603-24.467c-0.225-0.905-0.674-1.603-1.349-2.091c-0.899-0.696-4.524-1.464-10.874-2.301v-8.783
		c11.633,0.488,19.136,0.732,22.507,0.732l42.233-0.732c9.159,0,15.833,1.097,20.021,3.289c4.186,2.192,7.502,5.708,9.947,10.546
		c2.444,4.838,3.666,10.528,3.666,17.069c0,8.352-1.953,15.678-5.858,21.978c-3.906,6.3-10.692,11.884-20.357,16.756l17.955,33.563
		l13.993,25.723c2.641,4.182,4.607,6.709,5.901,7.58c1.292,0.873,3.399,1.343,6.322,1.412v8.051l-4.974,0.104
		c-14.275,0.139-23.464,0.348-27.565,0.627c-4.889-9.688-12.195-23.734-21.917-42.138l-17.365-32.728
		c0.506-1.185,0.928-2.438,1.265-3.764c2.247,0.35,3.905,0.522,4.974,0.522c5.227,0,10.368-2.619,15.426-7.856
		c5.058-5.238,7.587-12.709,7.587-22.417c0-8.45-2.001-15.014-6-19.693c-4-4.679-9.999-7.019-18-7.019
		c-2.535,0-5.972,0.245-10.309,0.732l-0.554,30.871l-0.711,39.139c0,8.859,0.279,20.196,0.839,34.01
		c0.446,10.396,0.894,16.222,1.341,17.477c0.335,0.908,0.95,1.64,1.844,2.197c1.174,0.838,4.976,1.465,11.403,1.884v8.782
		c-10.101-0.488-19.05-0.731-26.849-0.731C879.739,1519.46,870.818,1519.704,861.279,1520.192z"/>
</g>
</svg>
